<svg id="Layer_1" data-name="Layer 1" xmlns="http://www.w3.org/2000/svg" xmlns:xlink="http://www.w3.org/1999/xlink" viewBox="0 0 24 22"><defs><style>.cls-1{fill:none;}.cls-2{fill:#d46557;}.cls-3{fill:#e5b75b;}.cls-4{fill:#ba594c;}.cls-5{fill:#ec7061;}.cls-6{fill:#ffcb67;}.cls-7{clip-path:url(#clip-path);}.cls-8{fill:#fccd55;}.cls-9{fill:#e96468;}.cls-10{fill:#f7b449;}.cls-11{fill:#fff;}.cls-12{fill:#ac1f24;}.cls-13{fill:#008c6e;}.cls-14{fill:#52a862;}.cls-15{fill:#a84044;}.cls-16{fill:#c6b02e;}.cls-17{fill:#465ba3;}.cls-18{fill:#d8d8d7;}.cls-19{fill:#da4446;}.cls-20{fill:#f09fc0;}.cls-21{fill:#434a54;}.cls-22{fill:#235da7;}</style><clipPath id="clip-path"><rect class="cls-1" x="5" y="4.63" width="7.01" height="9.4"/></clipPath></defs><title>icon</title><path class="cls-2" d="M10,18c-1.1,0-2-.45-2-1v4c0,0.55.9,1,2,1,0.19,0,14-1,14-1V17s-13.81,1-14,1"/><path class="cls-3" d="M10,8C8.9,8,8,7.55,8,7V17c0,0.55.9,1,2,1,0.19,0,14-1,14-1V7S10.19,8,10,8"/><path class="cls-2" d="M10,4C8.9,4,8,3.55,8,3V7c0,0.55.9,1,2,1,0.19,0,14-1,14-1V3S10.19,4,10,4"/><path class="cls-4" d="M8,15v6c0-.55.9-1,2-1s2-.45,2-1V15H8Z"/><path class="cls-5" d="M10,14C9.73,14,0,15,0,15v4s9.73-1,10-1c1.1,0,2,.45,2,1V15c0-.55-0.9-1-2-1"/><path class="cls-6" d="M10,4C9.73,4,0,5,0,5V15s9.73-1,10-1c1.1,0,2,.45,2,1V5c0-.55-0.9-1-2-1"/><g class="cls-7"><path class="cls-8" d="M8,8.63H8Z"/><path class="cls-1" d="M8,8.62H8Z"/><path class="cls-8" d="M7.91,8.7H8.18V8.63H7.91V8.7Z"/><path class="cls-1" d="M7.91,8.7H8.18V8.63H7.91V8.7Z"/><path class="cls-8" d="M12,8l0.25,0s0,0,0,0h0a1.21,1.21,0,0,0-.55,0h0s0,0,0,0Z"/><path class="cls-8" d="M11.52,8.2h0.91V8H11.52V8.2h0Z"/><path class="cls-9" d="M12.29,7.78a2.21,2.21,0,0,0-.31,0,2.31,2.31,0,0,0-.32,0,0.07,0.07,0,0,1,0,0l0,0,0,0,0,0a0.1,0.1,0,0,1,0,0,0.14,0.14,0,0,1,0,0,0.13,0.13,0,0,1,0,0l0.1,0,0.08,0,0.06,0h0.43l0,0,0.06,0a0.11,0.11,0,0,1,.06.06,0.11,0.11,0,0,1,0,.08l0,0,0,0,0,0h0"/><path class="cls-1" d="M12.29,7.78a2.21,2.21,0,0,0-.31,0,2.31,2.31,0,0,0-.32,0,0.07,0.07,0,0,1,0,0l0,0,0,0,0,0a0.1,0.1,0,0,1,0,0,0.14,0.14,0,0,1,0,0,0.13,0.13,0,0,1,0,0l0.1,0,0.08,0,0.06,0h0.43l0,0,0.06,0a0.11,0.11,0,0,1,.06.06,0.11,0.11,0,0,1,0,.08l0,0,0,0,0,0h0Z"/><path class="cls-8" d="M12,7.51A0.07,0.07,0,1,1,12,7.41a0.09,0.09,0,0,1,.06.1"/><path class="cls-10" d="M12,7.51a0,0,0,1,1,0-.06,0.05,0.05,0,0,1,0,.06"/><path class="cls-8" d="M12,7.41a0,0,0,0,1-.08,0,0,0,0,0,1,.08,0,0,0,0,0,1,0,0"/><path class="cls-8" d="M12,7.39h0V7.34h0v0h0v0h0v0h0v0h0V7.39h0v0H11.95v0"/><path class="cls-8" d="M12,7.39h0V7.34h0v0h0v0h0v0h0v0h0V7.39h0v0H11.95v0"/><path class="cls-8" d="M11.93,7.39h0V7.34h0v0h0v0h0v0h0v0h0V7.39h0v0h-0.1v0"/><path class="cls-8" d="M11.93,7.39h0V7.34h0v0h0v0h0v0h0v0h0V7.39h0v0h-0.1v0"/><path class="cls-8" d="M12,7.37a0,0,0,0,1,0,0,0,0,0,0,1-.08,0,0,0,0,0,1,0,0"/><path class="cls-8" d="M12,7.77h-0.2V7.61a0.23,0.23,0,0,0-.12-0.11l0,0a0.24,0.24,0,0,1,.22.15l0,0h0.16l0,0a0.24,0.24,0,0,1,.22-0.15l0,0a0.2,0.2,0,0,0-.12.11V7.77H12"/><path class="cls-8" d="M12,7.77h-0.2V7.61a0.23,0.23,0,0,0-.12-0.11l0,0a0.24,0.24,0,0,1,.22.15l0,0h0.16l0,0a0.24,0.24,0,0,1,.22-0.15l0,0a0.2,0.2,0,0,0-.12.11V7.77H12Z"/><path class="cls-8" d="M12.27,7.86h0v0a0.92,0.92,0,0,0-.28,0,1,1,0,0,0-.28,0v0l0,0a1.1,1.1,0,0,1,.31,0,1.12,1.12,0,0,1,.31,0,0.14,0.14,0,0,0,0,0"/><path class="cls-10" d="M12.27,7.86h0v0a0.92,0.92,0,0,0-.28,0,1,1,0,0,0-.28,0v0l0,0a1.1,1.1,0,0,1,.31,0,1.12,1.12,0,0,1,.31,0,0.14,0.14,0,0,0,0,0"/><path class="cls-8" d="M11.66,7.77v0a1.09,1.09,0,0,1,.31,0,1.06,1.06,0,0,1,.31,0v0h0v0a0.07,0.07,0,0,1,0,0,0.1,0.1,0,0,1,0,0,0.07,0.07,0,0,1-.06,0,0.06,0.06,0,0,1,0,0,0.06,0.06,0,0,1,0,0,0.1,0.1,0,0,1,0,0,0.1,0.1,0,0,1,0,0,0.09,0.09,0,0,1-.05,0,0.08,0.08,0,0,1,0,0,0.09,0.09,0,0,1-.06,0,0.06,0.06,0,0,1,0,0H11.69l0,0"/><path class="cls-10" d="M11.66,7.77v0a1.09,1.09,0,0,1,.31,0,1.06,1.06,0,0,1,.31,0v0h0v0a0.07,0.07,0,0,1,0,0,0.1,0.1,0,0,1,0,0,0.07,0.07,0,0,1-.06,0,0.06,0.06,0,0,1,0,0,0.06,0.06,0,0,1,0,0,0.1,0.1,0,0,1,0,0,0.1,0.1,0,0,1,0,0,0.09,0.09,0,0,1-.05,0,0.08,0.08,0,0,1,0,0,0.09,0.09,0,0,1-.06,0,0.06,0.06,0,0,1,0,0H11.69l0,0h0Z"/><path class="cls-8" d="M12,7.67h0a0,0,0,0,0,0,0,0,0,0,0,0,0,0h0v0a0,0,0,0,0,0,0,0,0,0,0,0,0,0h0v0h0a0,0,0,0,0,0,0l0,0h0a0,0,0,0,0,0,0h0l0,0v0a0.15,0.15,0,0,1,0,0h0l0,0h0a0.06,0.06,0,0,1-.06,0l0,0-0.05,0,0,0a0.06,0.06,0,0,0-.11,0l0,0,0,0,0,0a0.06,0.06,0,0,1-.06,0h0l0,0h0a0.17,0.17,0,0,1,0,0v0l0,0h0a0,0,0,0,0,0,0h0l0,0a0,0,0,0,0,0,0v0h0a0,0,0,0,0,0,0,0,0,0,0,0,0,0v0h0a0,0,0,0,0,0,0,0,0,0,0,0,0,0h0"/><path class="cls-10" d="M12,7.67h0a0,0,0,0,0,0,0,0,0,0,0,0,0,0h0v0a0,0,0,0,0,0,0,0,0,0,0,0,0,0h0v0h0a0,0,0,0,0,0,0l0,0h0a0,0,0,0,0,0,0h0l0,0v0a0.15,0.15,0,0,1,0,0h0l0,0h0a0.06,0.06,0,0,1-.06,0l0,0-0.05,0,0,0a0.06,0.06,0,0,0-.11,0l0,0,0,0,0,0a0.06,0.06,0,0,1-.06,0h0l0,0h0a0.17,0.17,0,0,1,0,0v0l0,0h0a0,0,0,0,0,0,0h0l0,0a0,0,0,0,0,0,0v0h0a0,0,0,0,0,0,0,0,0,0,0,0,0,0v0h0a0,0,0,0,0,0,0,0,0,0,0,0,0,0h0Z"/><path class="cls-8" d="M12,7.78a1.12,1.12,0,0,0-.31,0h0a1.35,1.35,0,0,1,.64,0,0,0,0,0,1,0,0h0a1.12,1.12,0,0,0-.31,0"/><path class="cls-8" d="M11.67,7.82h0a1.35,1.35,0,0,1,.64,0,0,0,0,0,1,0,0h0A1.29,1.29,0,0,0,11.67,7.82Z"/><path class="cls-11" d="M12.1,7.83a0,0,0,0,1,0,0,0,0,0,0,1,0,0,0,0,0,0,1,0,0,0,0,0,0,1,0,0"/><path class="cls-1" d="M12.08,7.84a0,0,0,0,1,0,0,0,0,0,0,1,0,0,0,0,0,0,1,0,0A0,0,0,0,1,12.08,7.84Z"/><path class="cls-12" d="M12,7.83h0"/><path class="cls-9" d="M12,7.83h0"/><path class="cls-13" d="M12.18,7.85h0"/><path class="cls-14" d="M12.18,7.85h0"/><path class="cls-12" d="M12.29,7.86h0v0h0v0"/><path class="cls-9" d="M12.29,7.86h0v0h0v0"/><path class="cls-11" d="M11.9,7.83a0,0,0,0,1,0,0,0,0,0,0,1,0,0,0,0,0,0,1,0,0,0,0,0,0,1,0,0"/><path class="cls-1" d="M11.88,7.84a0,0,0,0,1,0,0,0,0,0,0,1,0,0,0,0,0,0,1,0,0,0,0,0,0,1,0,0Z"/><path class="cls-13" d="M11.78,7.85h0a0,0,0,0,0,0,0h0"/><path class="cls-14" d="M11.78,7.85h0a0,0,0,0,0,0,0h0"/><path class="cls-12" d="M11.67,7.86h0v0h0v0"/><path class="cls-9" d="M11.67,7.86h0v0h0v0"/><path class="cls-15" d="M12,7.94a1.06,1.06,0,0,1-.26,0,1.19,1.19,0,0,1,.51,0,1.06,1.06,0,0,1-.26,0"/><path class="cls-8" d="M11.67,7.73h0s0,0,0,0h0s0,0,0,0"/><path class="cls-10" d="M11.68,7.74s0,0,0,0h0a0,0,0,0,0,0,0h0Z"/><path class="cls-8" d="M11.86,7.69h0a0,0,0,0,0,0,0h0s0,0,0,0"/><path class="cls-8" d="M11.88,7.7a0,0,0,0,0,0,0h0a0,0,0,0,0,0,0A0,0,0,0,0,11.88,7.7Z"/><path class="cls-8" d="M12.09,7.69h0a0,0,0,0,1,0,0h0s0,0,0,0"/><path class="cls-8" d="M12.08,7.7a0,0,0,0,1,0,0h0a0,0,0,0,1,0,0h0Z"/><path class="cls-8" d="M12.29,7.73h0s0,0,0,0h0s0,0,0,0"/><path class="cls-10" d="M12.28,7.74s0,0,0,0h0a0,0,0,0,1,0,0h0Z"/><path class="cls-8" d="M12,7.57l0,0,0,0.06h0l0-.06,0,0"/><path class="cls-10" d="M12,7.57l0,0,0,0.06h0l0-.06,0,0"/><path class="cls-8" d="M12.06,7.66l0,0L12,7.65h0l0.06,0v0"/><path class="cls-10" d="M12.06,7.66l0,0L12,7.65h0l0.06,0v0"/><path class="cls-8" d="M11.9,7.66l0,0,0.06,0h0l-0.06,0,0,0"/><path class="cls-10" d="M11.9,7.66l0,0,0.06,0h0l-0.06,0,0,0"/><path class="cls-8" d="M12.21,7.6h0V7.67h0l0,0,0,0"/><path class="cls-10" d="M12.21,7.6h0V7.67h0l0,0,0,0"/><path class="cls-8" d="M12.27,7.69v0H12.19l0,0,0,0"/><path class="cls-10" d="M12.27,7.69v0H12.19l0,0,0,0"/><path class="cls-8" d="M12.11,7.66l0,0,0,0H12.12v0"/><path class="cls-10" d="M12.11,7.66l0,0,0,0H12.12v0"/><path class="cls-8" d="M12.32,7.7l0,0,0,0H12.33v0"/><path class="cls-10" d="M12.32,7.7l0,0,0,0H12.33v0"/><path class="cls-8" d="M12.21,7.67a0,0,0,0,1,0,0,0,0,0,0,1,0,0,0,0,0,0,1,0,0,0,0,0,0,1,0,0"/><path class="cls-10" d="M12.19,7.7a0,0,0,0,1,0,0,0,0,0,0,1,0,0,0,0,0,0,1,0,0Z"/><path class="cls-8" d="M11.75,7.6h0V7.67h0l0,0,0,0"/><path class="cls-10" d="M11.75,7.6h0V7.67h0l0,0,0,0"/><path class="cls-8" d="M11.69,7.69v0h0.06l0,0,0,0"/><path class="cls-10" d="M11.69,7.69v0h0.06l0,0,0,0"/><path class="cls-8" d="M11.84,7.66l0,0,0,0h0.06v0"/><path class="cls-10" d="M11.84,7.66l0,0,0,0h0.06v0"/><path class="cls-8" d="M11.65,7.7l0,0,0,0h0.06v0"/><path class="cls-10" d="M11.65,7.7l0,0,0,0h0.06v0"/><path class="cls-8" d="M12,7.66a0,0,0,0,1,0,0,0,0,0,0,1,0,0,0,0,0,0,1,0,0,0,0,0,0,1,0,0"/><path class="cls-10" d="M12,7.68a0,0,0,0,1,0,0,0,0,0,0,1,0,0,0,0,0,0,1,0,0Z"/><path class="cls-8" d="M11.79,7.67a0,0,0,0,1,0,0,0,0,0,0,1,0,0,0,0,0,0,1,0,0,0,0,0,0,1,0,0"/><path class="cls-10" d="M11.77,7.7a0,0,0,0,1,0,0,0,0,0,0,1,0,0,0,0,0,0,1,0,0Z"/><path class="cls-8" d="M12.4,7.73h0a0.07,0.07,0,0,1,0,0h0l0,0"/><path class="cls-10" d="M12.39,7.72a0.07,0.07,0,0,1,0,0h0.06l0,0,0,0h0Z"/><path class="cls-8" d="M12.4,7.72a0,0,0,0,1,0,0h0a0,0,0,0,1,0,0h0"/><path class="cls-10" d="M12.39,7.74h0a0,0,0,0,1,0,0h0S12.4,7.73,12.39,7.74Z"/><path class="cls-8" d="M11.57,7.73h0a0.07,0.07,0,0,0,0,0h0l0,0"/><path class="cls-10" d="M11.57,7.72a0.07,0.07,0,0,0,0,0H11.52l0,0,0,0h0Z"/><path class="cls-8" d="M11.57,7.72a0,0,0,0,0,0,0h0a0,0,0,0,0,0,0h0"/><path class="cls-10" d="M11.57,7.74h0a0,0,0,0,0,0,0h0S11.57,7.73,11.57,7.74Z"/><path class="cls-10" d="M12.34,8.35a0.06,0.06,0,0,1,0-.05,0.05,0.05,0,0,1,0-.05H11.62a0.06,0.06,0,0,1,0,.05,0.06,0.06,0,0,1,0,.05h0.71"/><path class="cls-1" d="M12.3,8.3a0.05,0.05,0,0,1,0-.05H11.62a0.06,0.06,0,0,1,0,.05,0.06,0.06,0,0,1,0,.05h0.71A0.05,0.05,0,0,1,12.3,8.3Z"/><path class="cls-16" d="M12.32,8.35a0,0,0,1,1,0,.06H11.64a0,0,0,1,1,0-.06h0.68"/><path class="cls-8" d="M12.36,8.38a0,0,0,0,1,0,0H11.64a0,0,0,1,1,0-.06h0.68A0,0,0,0,1,12.36,8.38Z"/><path class="cls-1" d="M12.32,11.8h-0.7a0,0,0,0,1,0,0,0.11,0.11,0,0,1-.12.11h0.94a0.11,0.11,0,0,1-.12-0.11s0,0,0,0h0Z"/><path class="cls-15" d="M12.52,10.9a0.24,0.24,0,0,0-.1.19,0.24,0.24,0,0,0,.09.18,0.14,0.14,0,0,1,.07-0.17A0.17,0.17,0,0,0,12.66,11a0.23,0.23,0,0,0-.14-0.14"/><path class="cls-1" d="M12.42,11.08a0.24,0.24,0,0,0,.09.18,0.14,0.14,0,0,1,.07-0.17A0.17,0.17,0,0,0,12.66,11a0.23,0.23,0,0,0-.14-0.13A0.23,0.23,0,0,0,12.42,11.08Z"/><path class="cls-11" d="M12.31,8.45H11.65V11.7h0.66V8.45Z"/><path class="cls-1" d="M12.31,8.45H11.65V11.7h0.66V8.45Z"/><path class="cls-9" d="M11,9.67V9.27a2.05,2.05,0,0,1,.67-0.09,2.27,2.27,0,0,1,.39,0,0.83,0.83,0,0,1,.75.39l-0.15.35h0A0.73,0.73,0,0,0,12,9.58l-0.32,0a2,2,0,0,0-.68.11"/><path class="cls-1" d="M11,9.67V9.27a2.05,2.05,0,0,1,.67-0.09,2.27,2.27,0,0,1,.39,0,0.83,0.83,0,0,1,.75.39l-0.15.35h0A0.73,0.73,0,0,0,12,9.58l-0.32,0a2,2,0,0,0-.68.11"/><path class="cls-15" d="M12.31,10.07V9.76h0.16a0.23,0.23,0,0,1,.16.19,0.33,0.33,0,0,1-.32.14"/><path class="cls-1" d="M12.31,10.07V9.76h0.16a0.23,0.23,0,0,1,.16.19,0.33,0.33,0,0,1-.32.14"/><path class="cls-15" d="M11.65,9.83v0.32a0.41,0.41,0,0,1-.25-0.23h0a0.59,0.59,0,0,1,.25-0.08"/><path class="cls-1" d="M11.65,9.83v0.32a0.41,0.41,0,0,1-.25-0.23h0a0.59,0.59,0,0,1,.25-0.08"/><path class="cls-12" d="M12.72,10.7L12.66,11a0.57,0.57,0,0,0-.35-0.23l-0.43-.17a0.92,0.92,0,0,1-.53-0.39,2,2,0,0,1,0-.33h0a1,1,0,0,0,.58.4l0.33,0.14a0.64,0.64,0,0,1,.41.25"/><path class="cls-9" d="M12.72,10.7L12.66,11a0.57,0.57,0,0,0-.35-0.23l-0.43-.17a0.92,0.92,0,0,1-.53-0.39,2,2,0,0,1,0-.33h0a1,1,0,0,0,.58.4l0.33,0.14a0.64,0.64,0,0,1,.41.25h0Z"/><path class="cls-8" d="M12.36,8.22a0,0,0,0,1,0,0H11.64a0,0,0,0,1,0,0,0,0,0,0,1,0,0h0.68A0,0,0,0,1,12.36,8.22Z"/><path class="cls-10" d="M12.34,11.8H11.62a0,0,0,0,1,0,0,0.11,0.11,0,0,1-.12.11h0.94a0.11,0.11,0,0,1-.12-0.11v0"/><path class="cls-8" d="M12.36,11.77a0,0,0,0,1,0,0H11.64a0,0,0,1,1,0-.06h0.68A0,0,0,0,1,12.36,11.77Z"/><path class="cls-8" d="M12.44,11.93H11.51v0.24h0.93V11.93Z"/><path class="cls-1" d="M11.66,9.83a0.53,0.53,0,0,0-.24.08h0a0.4,0.4,0,0,0,.25.23V9.83"/><path class="cls-8" d="M11.4,9.52c0-.1.06-0.19,0.09-0.28h0c0,0.07,0,.13-0.06.2l-0.12-.18H11.18l0.17,0.24h0"/><path class="cls-8" d="M11.65,9.25H11.57V9.5h0.18a0,0,0,0,1,0,0H11.65V9.25"/><path class="cls-8" d="M11.93,9.29H12v0l-0.25,0h0a0.2,0.2,0,0,1,0,0h0.09l0,0.24h0.07l0-.24"/><path class="cls-8" d="M12,9.55h0.07l0-.12h0l0,0,0,0.09h0.08v0l-0.06-.12A0.07,0.07,0,0,0,12.3,9.4a0.06,0.06,0,0,0,0-.06l-0.07,0-0.1,0L12,9.55m0.13-.22s0.06,0,.06,0a0,0,0,0,1,0,0,0.06,0.06,0,0,1-.09,0l0-.1"/><path class="cls-8" d="M12.51,9.63a0.71,0.71,0,0,1,0,.08l0,0,0,0,0-.3h0L12.3,9.6h0l0.07-.05,0.1,0.06h0Zm-0.07-.07,0.09-.06V9.6l-0.08,0"/><path class="cls-17" d="M11.34,12.2v0.1a0.34,0.34,0,0,0,.16,0,0.37,0.37,0,0,1,.32,0,0.36,0.36,0,0,0,.16,0,0.34,0.34,0,0,0,.16,0,0.35,0.35,0,0,1,.15,0,0.36,0.36,0,0,1,.16,0,0.37,0.37,0,0,0,.16,0V12.2a0.37,0.37,0,0,1-.16,0,0.35,0.35,0,0,0-.16,0,0.35,0.35,0,0,0-.15,0,0.36,0.36,0,0,1-.16,0,0.34,0.34,0,0,1-.16,0,0.37,0.37,0,0,0-.32,0,0.34,0.34,0,0,1-.16,0"/><path class="cls-11" d="M11.34,12.3v0.1a0.34,0.34,0,0,0,.16,0,0.37,0.37,0,0,1,.32,0,0.36,0.36,0,0,0,.16,0,0.34,0.34,0,0,0,.16,0,0.35,0.35,0,0,1,.15,0,0.36,0.36,0,0,1,.16,0,0.37,0.37,0,0,0,.16,0V12.3a0.37,0.37,0,0,1-.16,0,0.35,0.35,0,0,0-.16,0,0.35,0.35,0,0,0-.15,0,0.36,0.36,0,0,1-.16,0,0.34,0.34,0,0,1-.16,0,0.37,0.37,0,0,0-.32,0,0.34,0.34,0,0,1-.16,0"/><path class="cls-17" d="M11.34,12.4v0.1a0.34,0.34,0,0,0,.16,0,0.37,0.37,0,0,1,.32,0,0.36,0.36,0,0,0,.16,0,0.34,0.34,0,0,0,.16,0,0.35,0.35,0,0,1,.15,0,0.36,0.36,0,0,1,.16,0,0.37,0.37,0,0,0,.16,0V12.4a0.37,0.37,0,0,1-.16,0,0.35,0.35,0,0,0-.16,0,0.35,0.35,0,0,0-.15,0,0.36,0.36,0,0,1-.16,0,0.34,0.34,0,0,1-.16,0,0.37,0.37,0,0,0-.32,0,0.3,0.3,0,0,1-.16,0"/><path class="cls-11" d="M11.34,12.59V12.5a0.34,0.34,0,0,0,.16,0,0.37,0.37,0,0,1,.32,0,0.36,0.36,0,0,0,.16,0,0.34,0.34,0,0,0,.16,0,0.35,0.35,0,0,1,.15,0,0.36,0.36,0,0,1,.16,0,0.37,0.37,0,0,0,.16,0v0.1a0.37,0.37,0,0,1-.16,0,0.35,0.35,0,0,0-.16,0,0.35,0.35,0,0,0-.15,0,0.36,0.36,0,0,1-.16,0,0.34,0.34,0,0,1-.16,0,0.37,0.37,0,0,0-.32,0,0.3,0.3,0,0,1-.16,0"/><path class="cls-17" d="M11.34,12.59a0.34,0.34,0,0,0,.16,0,0.37,0.37,0,0,1,.32,0,0.36,0.36,0,0,0,.16,0,0.34,0.34,0,0,0,.16,0,0.35,0.35,0,0,1,.15,0,0.36,0.36,0,0,1,.16,0,0.37,0.37,0,0,0,.16,0v0.1a0.37,0.37,0,0,1-.16,0,0.35,0.35,0,0,0-.16,0,0.35,0.35,0,0,0-.15,0,0.36,0.36,0,0,1-.16,0,0.34,0.34,0,0,1-.16,0,0.37,0.37,0,0,0-.32,0,0.35,0.35,0,0,1-.16,0v-0.1Z"/><path class="cls-1" d="M7.93,6.89A0.09,0.09,0,1,1,8,7,0.09,0.09,0,0,1,7.93,6.89Z"/><path class="cls-9" d="M8.92,6.17a1.91,1.91,0,0,1,.67.1,1.24,1.24,0,0,0,.34.09,1.27,1.27,0,0,0,.28,0,1.09,1.09,0,0,1,.43.1,1.14,1.14,0,0,1,.32.2l-0.06.06,0,0.16-0.18.2-0.09.07-0.21.17H10.3l0,0.09L8.93,7.27l-1.35.16,0-.09H7.45L7.24,7.17,7.15,7.09,7,6.89l0-.16L6.89,6.67a1.2,1.2,0,0,1,.32-0.2,1.15,1.15,0,0,1,.43-0.1,1.26,1.26,0,0,0,.28,0,1.3,1.3,0,0,0,.34-0.09A1.84,1.84,0,0,1,8.92,6.17Z"/><path class="cls-8" d="M8.94,7.94a4.66,4.66,0,0,1-1.27-.15,0.05,0.05,0,0,1,0-.1,4.66,4.66,0,0,1,1.27-.15,4.66,4.66,0,0,1,1.27.15,0,0,0,0,1,0,0,0,0,0,0,1,0,0,4.68,4.68,0,0,1-1.27.15"/><path class="cls-15" d="M8.94,7.88a4.77,4.77,0,0,1-1.17-.13,4.79,4.79,0,0,1,1.17-.13,4.82,4.82,0,0,1,1.17.13,4.8,4.8,0,0,1-1.17.13"/><path class="cls-10" d="M8.94,7.53a4.52,4.52,0,0,0-1.28.16s0,0,0-.13a0.12,0.12,0,0,0-.1-0.1,5.09,5.09,0,0,1,1.39-.17,5.28,5.28,0,0,1,1.4.17,0.12,0.12,0,0,0-.1.1c0,0.08,0,.12,0,0.13a4.64,4.64,0,0,0-1.29-.16"/><path class="cls-8" d="M8.94,7.29a5.27,5.27,0,0,0-1.39.17,0,0,0,1,1,0-.08A5.2,5.2,0,0,1,8.94,7.2a5.1,5.1,0,0,1,1.42.18,0,0,0,0,1,0,.06,0,0,0,0,1-.06,0,5.18,5.18,0,0,0-1.39-.17"/><path class="cls-1" d="M8.94,7.88a4.77,4.77,0,0,1-1.17-.13,4.79,4.79,0,0,1,1.17-.13,4.82,4.82,0,0,1,1.17.13A4.8,4.8,0,0,1,8.94,7.88Z"/><path class="cls-11" d="M8.55,7.42a0,0,0,0,1,.09,0,0,0,0,0,1-.09,0,0,0,0,0,1,0,0"/><path class="cls-9" d="M8.94,7.45H8.81a0,0,0,1,1,0-.08H9.08a0,0,0,1,1,0,.08H8.94"/><path class="cls-14" d="M8.27,7.49H8.17a0,0,0,0,1,0,0,0,0,0,0,1,0,0h0.2a0,0,0,0,1,0,0,0,0,0,0,1,0,0H8.27"/><path class="cls-11" d="M7.88,7.5A0,0,0,0,1,8,7.5a0,0,0,0,1-.09,0,0,0,0,0,1,0,0"/><path class="cls-9" d="M7.58,7.58l0-.06,0.14,0-0.11.08-0.08,0"/><path class="cls-14" d="M9.62,7.49h0.1a0,0,0,0,0,0,0,0,0,0,0,0,0,0H9.53a0,0,0,0,0,0,0,0,0,0,0,0,0,0h0.1"/><path class="cls-11" d="M9.24,7.42a0,0,0,0,1,.09,0,0,0,0,0,1-.09,0,0,0,0,0,1,0,0"/><path class="cls-11" d="M9.92,7.5a0,0,0,0,1,.09,0,0,0,0,0,1-.09,0,0,0,0,0,1,0,0"/><path class="cls-9" d="M10.3,7.58l0-.06-0.14,0,0.11,0.08,0.08,0"/><path class="cls-1" d="M7.72,7.76a4.74,4.74,0,0,1,1.22-.14,4.75,4.75,0,0,1,1.23.14"/><path class="cls-16" d="M7.93,6.52L8,6.57l0.08-.14a0.32,0.32,0,0,1-.15-0.26,0.14,0.14,0,0,1,0,0,0.45,0.45,0,0,1,.5-0.32,0.63,0.63,0,0,1,.36.1s0,0,0-.07a0.76,0.76,0,0,0-.37-0.09,0.53,0.53,0,0,0-.57.39s0,0,0,0A0.38,0.38,0,0,0,8,6.46l0,0.07"/><path class="cls-8" d="M7.93,6.52L8,6.57l0.08-.14a0.32,0.32,0,0,1-.15-0.26,0.14,0.14,0,0,1,0,0,0.45,0.45,0,0,1,.5-0.32,0.63,0.63,0,0,1,.36.1s0,0,0-.07a0.76,0.76,0,0,0-.37-0.09,0.53,0.53,0,0,0-.57.39s0,0,0,0A0.38,0.38,0,0,0,8,6.46l0,0.07"/><path class="cls-8" d="M7.93,6.53a0.4,0.4,0,0,1-.17-0.31A0.41,0.41,0,0,1,8,5.87a0.36,0.36,0,0,0-.14.25s0,0,0,0A0.38,0.38,0,0,0,8,6.45l0,0.07"/><path class="cls-10" d="M7.93,6.53a0.4,0.4,0,0,1-.17-0.31A0.41,0.41,0,0,1,8,5.87a0.36,0.36,0,0,0-.14.25s0,0,0,0A0.38,0.38,0,0,0,8,6.45l0,0.07"/><path class="cls-16" d="M7,6.67a0.38,0.38,0,0,1-.1-0.25,0.37,0.37,0,0,1,0-.16,0.76,0.76,0,0,1,.68-0.31L7.86,6,7.81,6,7.61,6A0.68,0.68,0,0,0,7,6.28a0.32,0.32,0,0,0,0,.13,0.31,0.31,0,0,0,.11.24L7,6.83l-0.06,0L7,6.67"/><path class="cls-8" d="M7,6.67a0.38,0.38,0,0,1-.1-0.25,0.37,0.37,0,0,1,0-.16,0.76,0.76,0,0,1,.68-0.31L7.86,6,7.81,6,7.61,6A0.68,0.68,0,0,0,7,6.28a0.32,0.32,0,0,0,0,.13,0.31,0.31,0,0,0,.11.24L7,6.83l-0.06,0L7,6.67H7Z"/><path class="cls-16" d="M7.1,6.08a0.45,0.45,0,0,0-.17.18,0.35,0.35,0,0,0,0,.16,0.36,0.36,0,0,0,.1.25l-0.07.11a0.44,0.44,0,0,1-.1-0.27A0.5,0.5,0,0,1,7.1,6.08"/><path class="cls-10" d="M7.1,6.08a0.45,0.45,0,0,0-.17.18,0.35,0.35,0,0,0,0,.16,0.36,0.36,0,0,0,.1.25l-0.07.11a0.44,0.44,0,0,1-.1-0.27A0.5,0.5,0,0,1,7.1,6.08Z"/><path class="cls-8" d="M8.94,5.7a0.15,0.15,0,0,1,.15.11A1.46,1.46,0,0,1,9.1,6V6a0.08,0.08,0,0,0,0,0,1.19,1.19,0,0,0,.05.35l-0.22.21L8.72,6.4a1.19,1.19,0,0,0,.05-0.35V6a1.06,1.06,0,0,1,0-.19A0.15,0.15,0,0,1,8.94,5.7"/><path class="cls-1" d="M8.94,5.7a0.15,0.15,0,0,1,.15.11A1.46,1.46,0,0,1,9.1,6V6a0.08,0.08,0,0,0,0,0,1.19,1.19,0,0,0,.05.35l-0.22.21L8.72,6.4a1.19,1.19,0,0,0,.05-0.35V6a1.06,1.06,0,0,1,0-.19A0.15,0.15,0,0,1,8.94,5.7h0Z"/><path class="cls-16" d="M8.94,5.77A0.08,0.08,0,0,1,9,5.83,1.29,1.29,0,0,1,9,6V6a1.1,1.1,0,0,0,0,.33l-0.14.14L8.79,6.38a1.09,1.09,0,0,0,0-.33V6a0.94,0.94,0,0,1,0-.18,0.08,0.08,0,0,1,.08-0.06"/><path class="cls-10" d="M8.94,5.77A0.08,0.08,0,0,1,9,5.83,1.29,1.29,0,0,1,9,6V6a1.1,1.1,0,0,0,0,.33l-0.14.14L8.79,6.38a1.09,1.09,0,0,0,0-.33V6a0.94,0.94,0,0,1,0-.18A0.08,0.08,0,0,1,8.94,5.77Z"/><path class="cls-11" d="M8.86,6.42a0.08,0.08,0,1,1,.08.07,0.08,0.08,0,0,1-.08-0.07"/><path class="cls-1" d="M8.86,6.42a0.08,0.08,0,1,1,.08.07A0.08,0.08,0,0,1,8.86,6.42Z"/><path class="cls-11" d="M8.86,6.28a0.08,0.08,0,1,1,.08.07,0.08,0.08,0,0,1-.08-0.07"/><path class="cls-11" d="M8.88,6.12a0.06,0.06,0,0,1,.06-0.06A0.06,0.06,0,0,1,9,6.12a0.06,0.06,0,0,1-.13,0"/><path class="cls-11" d="M8.89,6A0,0,0,0,1,9,6a0,0,0,0,1-.09,0,0,0,0,0,1,0,0"/><path class="cls-11" d="M8.9,5.86a0,0,0,0,1,0,0,0,0,0,0,1,0,0,0,0,0,0,1,0,0,0,0,0,0,1,0,0"/><path class="cls-8" d="M8.94,6.86H9a0.21,0.21,0,0,0,0,.07,0.2,0.2,0,0,0,.2.19A0.2,0.2,0,0,0,9.37,7a0.34,0.34,0,0,1,0-.07,0.57,0.57,0,0,1,0,.07,0.2,0.2,0,0,0,.4,0V7l0.06-.06L9.91,7a0.17,0.17,0,0,0,0,.08,0.19,0.19,0,0,0,.19.18,0.19,0.19,0,0,0,.16-0.08l0-.05V7.16a0.12,0.12,0,0,0,.09.13,0.28,0.28,0,0,0,.17-0.07,1,1,0,0,0,.14-0.13V7.16a0.62,0.62,0,0,1-.16.17,0.27,0.27,0,0,1-.17,0,0.17,0.17,0,0,1-.12-0.11,0.29,0.29,0,0,1-.14,0,0.28,0.28,0,0,1-.26-0.16,0.29,0.29,0,0,1-.21.09,0.3,0.3,0,0,1-.23-0.11,0.31,0.31,0,0,1-.2.08,0.3,0.3,0,0,1-.24-0.12,0.29,0.29,0,0,1-.24.12,0.28,0.28,0,0,1-.2-0.08,0.3,0.3,0,0,1-.23.11,0.29,0.29,0,0,1-.21-0.09,0.28,0.28,0,0,1-.26.16,0.29,0.29,0,0,1-.14,0,0.17,0.17,0,0,1-.12.11,0.27,0.27,0,0,1-.17,0A0.62,0.62,0,0,1,7.2,7.16V7.09a1.29,1.29,0,0,0,.14.13,0.28,0.28,0,0,0,.17.07,0.12,0.12,0,0,0,.09-0.13V7.1l0,0.05a0.19,0.19,0,0,0,.16.08A0.19,0.19,0,0,0,8,7.05,0.23,0.23,0,0,0,8,7l0-.08L8.08,7V7a0.19,0.19,0,0,0,.2.19A0.19,0.19,0,0,0,8.48,7a0.49,0.49,0,0,1,0-.07s0,0.07,0,.07a0.2,0.2,0,0,0,.39-0.06,0.14,0.14,0,0,0,0-.07h0"/><path class="cls-11" d="M10.32,7.11a0.06,0.06,0,0,0,0-.07,0.06,0.06,0,0,0-.07,0,0.06,0.06,0,0,0,0,.07,0.06,0.06,0,0,0,.07,0"/><path class="cls-11" d="M9.45,6.95a0.06,0.06,0,0,0,0-.07,0.06,0.06,0,0,0-.05.06,0.06,0.06,0,0,0,0,.07,0.06,0.06,0,0,0,.05-0.06"/><path class="cls-11" d="M8.44,6.95a0.06,0.06,0,0,1,0-.07,0.06,0.06,0,0,1,.06.06,0.06,0.06,0,0,1,0,.07,0.06,0.06,0,0,1-.06-0.06"/><path class="cls-11" d="M7.57,7.11a0.06,0.06,0,0,1,0-.07,0.06,0.06,0,0,1,.07,0,0.06,0.06,0,0,1,0,.07,0.06,0.06,0,0,1-.07,0"/><path class="cls-8" d="M7.94,6.53a0.24,0.24,0,0,1,.1.12l0,0h0V6.67a0.88,0.88,0,0,1,0,.1l0,0.07a0.08,0.08,0,0,0-.06,0,0.07,0.07,0,0,0-.05,0l0-.06,0-.08,0,0H7.91a0.19,0.19,0,0,1,0-.14"/><path class="cls-8" d="M8,6.95a0.07,0.07,0,0,1,0,0,0.06,0.06,0,0,1,0,0l-0.07,0H7.73v0l0,0A0.21,0.21,0,0,0,7.64,7a0.21,0.21,0,0,0,.15,0V7.05l0,0L7.91,7,8,6.95"/><path class="cls-8" d="M8.08,6.93a0.06,0.06,0,0,0,0,0,0.07,0.07,0,0,0,0,0l0.06,0,0.09,0,0,0V6.79a0.22,0.22,0,0,1,.15,0,0.21,0.21,0,0,1-.12.08l0,0V7H8.16l-0.08,0"/><path class="cls-9" d="M7.93,6.89A0.09,0.09,0,1,1,8,7a0.09,0.09,0,0,1-.09-0.08"/><path class="cls-8" d="M8.94,6.4A0.26,0.26,0,0,1,9,6.55l0,0H9.11l0,0.06a0.71,0.71,0,0,1,0,.1,0.28,0.28,0,0,1,0,.07,0.1,0.1,0,0,0-.07,0,0.08,0.08,0,0,0-.07,0l0-.07,0-.1,0-.06H8.83l0,0A0.19,0.19,0,0,1,8.94,6.4"/><path class="cls-8" d="M8.87,6.87a0.08,0.08,0,0,1,0-.05,0.07,0.07,0,0,1,0-.05l-0.08,0-0.11,0H8.64v0l0,0a0.24,0.24,0,0,0-.15.07,0.24,0.24,0,0,0,.15.07l0,0a0.08,0.08,0,0,0,0,0H8.69l0.11,0,0.08,0"/><path class="cls-8" d="M9,6.87a0.08,0.08,0,0,0,0-.05,0.07,0.07,0,0,0,0-.05l0.08,0,0.11,0H9.24v0l0,0a0.24,0.24,0,0,1,.15.07,0.24,0.24,0,0,1-.15.07l0,0a0.08,0.08,0,0,1,0,0H9.19l-0.11,0L9,6.87"/><path class="cls-8" d="M9.94,6.53a0.24,0.24,0,0,0-.1.12l0,0h0V6.67a0.88,0.88,0,0,0,0,.1l0,0.07a0.08,0.08,0,0,1,.06,0,0.07,0.07,0,0,1,.05,0l0-.06,0-.08,0,0H10a0.18,0.18,0,0,0,0-.14"/><path class="cls-8" d="M9.92,6.95a0.07,0.07,0,0,0,0,0,0.06,0.06,0,0,0,0,0l0.07,0h0.14v0l0,0a0.21,0.21,0,0,1,.12.08,0.21,0.21,0,0,1-.15,0V7.05l0,0L10,7l-0.06,0"/><path class="cls-8" d="M9.81,6.93a0.06,0.06,0,0,1,0,0,0.07,0.07,0,0,1,0,0l-0.06,0-0.09,0,0,0V6.79a0.22,0.22,0,0,0-.15,0,0.21,0.21,0,0,0,.12.08l0,0V7H9.73l0.08,0"/><path class="cls-9" d="M9.79,6.89A0.09,0.09,0,1,1,9.87,7a0.09,0.09,0,0,1-.09-0.08"/><path class="cls-9" d="M10.77,7.08a0.07,0.07,0,0,0-.1,0,0.06,0.06,0,0,0,0,.09,0.07,0.07,0,0,0,.1,0,0.06,0.06,0,0,0,0-.09"/><path class="cls-8" d="M10.65,7.13a0.08,0.08,0,0,1,0,0,0.07,0.07,0,0,1,.1,0h0A0.33,0.33,0,0,1,10.88,7,0.33,0.33,0,0,1,11,7a0.12,0.12,0,0,0-.12-0.12,0.14,0.14,0,0,0-.1,0v0a0.12,0.12,0,0,0-.08.07,0.28,0.28,0,0,0,0,.15,0.3,0.3,0,0,0,0-.07,0.39,0.39,0,0,0-.1-0.07l-0.06,0V7a0.29,0.29,0,0,0-.15,0,0.22,0.22,0,0,0,.11.1l0,0,0,0h0.16l0.08,0"/><path class="cls-8" d="M7.24,7.13a0.08,0.08,0,0,0,0,0,0.07,0.07,0,0,0-.1,0h0A0.33,0.33,0,0,0,7,7a0.31,0.31,0,0,0-.14,0A0.12,0.12,0,0,1,7,6.84a0.13,0.13,0,0,1,.1,0v0a0.12,0.12,0,0,1,.08.07,0.28,0.28,0,0,1,0,.15,0.3,0.3,0,0,1,0-.07,0.39,0.39,0,0,1,.1-0.07l0.06,0V7a0.29,0.29,0,0,1,.15,0,0.22,0.22,0,0,1-.11.1l0,0,0,0H7.32l-0.08,0"/><path class="cls-9" d="M7.11,7.08a0.07,0.07,0,0,1,.1,0,0.06,0.06,0,0,1,0,.09,0.07,0.07,0,0,1-.1,0,0.06,0.06,0,0,1,0-.09"/><path class="cls-9" d="M8.85,6.81a0.09,0.09,0,1,1,.09.08,0.08,0.08,0,0,1-.09-0.08"/><path class="cls-17" d="M8.76,5.54a0.18,0.18,0,1,1,.18.17,0.18,0.18,0,0,1-.18-0.17"/><path class="cls-8" d="M8.89,5.06V5.15H8.79v0.1h0.1V5.52H8.77s0,0,0,0a0.14,0.14,0,0,0,0,.07H9.1a0.14,0.14,0,0,0,0-.07,0.07,0.07,0,0,0,0,0H9V5.24h0.1V5.15H9V5.06H8.89Z"/><path class="cls-18" d="M9,12.76a3.47,3.47,0,0,1-1.51-.35,1,1,0,0,1-.55-0.86V10.19H11v1.36a1,1,0,0,1-.55.86,3.4,3.4,0,0,1-1.5.35"/><path class="cls-11" d="M9,12.76a3.47,3.47,0,0,1-1.51-.35,1,1,0,0,1-.55-0.86V10.19H11v1.36a1,1,0,0,1-.55.86A3.4,3.4,0,0,1,9,12.76Z"/><path class="cls-11" d="M8.95,10.19H11V7.91H8.95v2.27Z"/><path class="cls-1" d="M8.95,10.19H11V7.91H8.95v2.27Z"/><path class="cls-9" d="M8.95,11.55a1,1,0,0,1-2,0V10.19h2v1.36"/><path class="cls-8" d="M7.35,12.35a0.94,0.94,0,0,0,.25.11V10.14H7.35v2.21Z"/><path class="cls-8" d="M6.9,11.53a1,1,0,0,0,.23.64v-2H6.9v1.38Z"/><path class="cls-8" d="M7.81,12.51a1.09,1.09,0,0,0,.24,0V10.14H7.81v2.37Z"/><path class="cls-8" d="M8.26,12.46a0.74,0.74,0,0,0,.25-0.11V10.14H8.26v2.32Z"/><path class="cls-9" d="M6.9,10.19h2V7.91h-2v2.27Z"/><path class="cls-1" d="M6.9,10.19h2V7.91h-2v2.27Z"/><path class="cls-8" d="M8.73,12.14A0.93,0.93,0,0,0,9,11.62V10.14H8.72v2Z"/><path class="cls-1" d="M8.95,11.55a1,1,0,0,1-2,0V10.19h2v1.36"/><path class="cls-9" d="M11,10.19v1.36a1,1,0,0,1-2,0V10.19h2"/><path class="cls-1" d="M11,10.19v1.36a1,1,0,0,1-2,0V10.19h2"/><path class="cls-8" d="M9.32,11.21a0,0,0,0,1,0,0,0,0,0,0,1,0,0,0,0,0,0,1,0,0v0H9.16v0a0.11,0.11,0,0,0,.08.1V11.5H9.31V11.33a0.12,0.12,0,0,0,.07-0.07H9.56V11.21H9.32m0.92,0v0.06H10.07v0l0.2,0.22-0.05,0L10,11.33h0V11.7H9.93V11.33h0l-0.2.23-0.05,0,0.2-.23v0H9.69V11.21h0.55Zm0.11,0v0.06h0.19a0.1,0.1,0,0,0,.07.07V11.5h0.07V11.34a0.11,0.11,0,0,0,.08-0.1,0.06,0.06,0,0,0,0,0H10.69a0,0,0,0,1,0,.05,0,0,0,0,1,0,0v0H10.36m-0.29.94,0.15,0,0,0.06-0.18.05a0.11,0.11,0,0,1-.22,0l-0.19-.05,0-.06,0.17,0a0.1,0.1,0,0,1,.06-0.06V11.81H10V12.1a0.09,0.09,0,0,1,.07.05h0Zm-0.47-.1,0,0.06A0.69,0.69,0,0,1,9.41,12a0.12,0.12,0,0,1-.11,0,0.1,0.1,0,0,1,0-.15h0a0.67,0.67,0,0,1-.05-0.2H9.32a0.62,0.62,0,0,0,0,.18H9.42l0.18-.19,0.05,0-0.17.19a0.1,0.1,0,0,1,0,.12A0.64,0.64,0,0,0,9.6,12.06Zm-0.26-.2a0,0,0,0,1,.07,0,0,0,0,0,1,0,.06,0,0,0,0,1-.07,0A0,0,0,0,1,9.35,11.86Zm1,0.2,0,0.06A0.69,0.69,0,0,0,10.51,12a0.12,0.12,0,0,0,.11,0,0.1,0.1,0,0,0,0-.15h0a0.67,0.67,0,0,0,.05-0.2H10.61a0.62,0.62,0,0,1,0,.18H10.5l-0.17-.19-0.05,0,0.17,0.19a0.1,0.1,0,0,0,0,.12Zm0.26-.2a0,0,0,0,0-.07,0,0,0,0,0,0,0,.06,0,0,0,0,0,.07,0A0,0,0,0,0,10.59,11.86Zm-0.27-.18-0.07,0-0.12-.14,0-.06,0.15,0.17m0.05,0,0-.06-0.12-.14-0.07,0,0.15,0.17m-0.85-.37,0,0.07H9.73l0-.07H9.52m0.9,0,0,0.07H10.2l0-.07h0.24m-0.5.93a0,0,0,0,1,0,0,0,0,0,1,1,0,.09A0.05,0.05,0,0,1,9.92,12.2ZM10,11.87l0.07,0V11.66l-0.07,0v0.23m-0.07,0-0.07,0V11.66l0.07,0v0.23"/><path class="cls-8" d="M9.17,11.21a0.11,0.11,0,0,1,.08-0.08V10.91H9.32v0.23a0.1,0.1,0,0,1,.07.07H9.32a0,0,0,0,0-.08,0H9.17m0.52,0H9.86v0l-0.21-.24,0.05,0,0.21,0.24h0V10.82H10v0.31h0l0.21-.24,0.05,0-0.21.23v0H9.69Zm0.92,0a0,0,0,0,1,.08,0h0.07a0.11,0.11,0,0,0-.08-0.08V10.91H10.61v0.23a0.1,0.1,0,0,0-.07.07h0.07m-1.28-.63,0.26,0.29,0.05,0-0.26-.29v0H9.58V10.45H9.39a0.11,0.11,0,0,0-.11-0.07,0.11,0.11,0,0,0-.11.11,0.11,0.11,0,0,0,.07.1V10.8H9.32V10.58h0Zm1.36,0V10.8H10.61V10.58h0l-0.26.29-0.05,0,0.26-.3h-0.2V10.44h0.19a0.11,0.11,0,0,1,.11-0.07,0.11,0.11,0,0,1,.11.11A0.1,0.1,0,0,1,10.68,10.58Zm-0.68,0v0.14H9.93V10.58a0.12,0.12,0,0,1-.07-0.07H9.69V10.45H9.86a0.11,0.11,0,0,1,.21,0h0.17v0.07H10.07A0.1,0.1,0,0,1,10,10.58Zm0.61,0.17-0.07,0v0.18l0.07,0V10.75m0.07,0,0.07,0v0.18l-0.07,0V10.75m-1.08,0,0.07,0,0.12,0.14,0,0.06L9.6,10.78m-0.05,0,0,0.06L9.62,11l0.07,0-0.15-.17m0.79,0-0.07,0-0.12.14,0,0.06,0.15-.17m0.05,0,0,0.06L10.3,11l-0.07,0,0.15-.17m-0.86.38,0-.07H9.73l0,0.07H9.52m-0.28-.72a0,0,0,0,1,0,0,0,0,0,1,1,0,.09A0,0,0,0,1,9.24,10.48Zm0.51,0,0,0.07H9.54l0-.07H9.75m0-.07,0-.07H9.54l0,0.07H9.75m0.67,0.76,0-.07H10.2l0,0.07h0.24m0.19-.72a0,0,0,0,1,0,0,0,0,0,0,1,0,0A0,0,0,0,1,10.6,10.48Zm-0.69,0a0,0,0,0,1,0,0,0,0,0,0,1,0,0A0,0,0,0,1,9.92,10.48Zm0.27,0,0,0.07H10.4l0-.07H10.18m0-.07,0-.07H10.4l0,0.07H10.18m-0.25.21-0.07,0v0.18l0.07,0V10.66m0.07,0,0.07,0v0.18l-0.07,0V10.66"/><path class="cls-1" d="M10.07,12.15l0.15,0,0,0.06-0.18.05a0.11,0.11,0,0,1-.22,0l-0.19-.05,0-.06,0.17,0a0.1,0.1,0,0,1,.06-0.06V11.81H10V12.1a0.09,0.09,0,0,1,.07.05h0Zm-0.2-.87H9.69V11.2H9.86v0l-0.21-.24,0.05,0,0.21,0.23h0V10.82H10v0.31h0l0.21-.24,0.05,0-0.21.23v0h0.17v0.07H10.07v0l0.2,0.22-0.05,0L10,11.33h0V11.7H9.93V11.33h0l-0.2.23-0.05,0,0.2-.23m-0.54-.7,0.26,0.29,0.05,0-0.26-.29v0H9.58V10.45H9.39a0.11,0.11,0,0,0-.11-0.07,0.11,0.11,0,0,0-.11.11,0.11,0.11,0,0,0,.07.1V10.8H9.32V10.58h0ZM9.6,12.06l0,0.06A0.69,0.69,0,0,1,9.41,12a0.12,0.12,0,0,1-.11,0,0.1,0.1,0,0,1,0-.15h0a0.67,0.67,0,0,1-.05-0.2H9.32a0.62,0.62,0,0,0,0,.18H9.42l0.18-.19,0.05,0-0.17.19a0.1,0.1,0,0,1,0,.12A0.64,0.64,0,0,0,9.6,12.06ZM9.25,11.5V11.34a0.11,0.11,0,0,1-.08-0.1,0.11,0.11,0,0,1,.08-0.1V10.91H9.32v0.23a0.1,0.1,0,0,1,.07.07H9.57v0.07H9.39a0.1,0.1,0,0,1-.07.07V11.5H9.25m0,0.16-0.07,0V11.46l0.07,0v0.11A0.63,0.63,0,0,0,9.26,11.66Zm0.06-.23,0.07,0s0,0.12,0,.09,0,0.09,0,.09l-0.07,0a0.61,0.61,0,0,1,0-.11V11.44h0ZM9.55,12a0.71,0.71,0,0,0,.2.11l0-.07A0.63,0.63,0,0,1,9.6,12L9.55,12m0,0.06a0.81,0.81,0,0,0,.2.11l-0.05,0L9.5,12.15l0-.07"/><path class="cls-1" d="M9.61,11.68l0.07,0,0.12-.14,0-.06-0.15.17m-0.05,0,0-.06,0.12-.14,0.07,0-0.15.17m-0.32-.4a0,0,0,0,1,0,0,0,0,0,0,1,0,0,0,0,0,0,1,0,0A0,0,0,0,1,9.23,11.24Zm1.09,0.82,0,0.06A0.69,0.69,0,0,0,10.51,12a0.12,0.12,0,0,0,.11,0,0.1,0.1,0,0,0,0-.15h0a0.67,0.67,0,0,0,.05-0.2H10.61a0.62,0.62,0,0,1,0,.18H10.5l-0.17-.19-0.05,0,0.17,0.19a0.1,0.1,0,0,0,0,.12Zm0.36-.56V11.34a0.11,0.11,0,0,0,.08-0.1,0.11,0.11,0,0,0-.08-0.1V10.91H10.61v0.23a0.1,0.1,0,0,0-.07.07H10.36v0.07h0.19a0.1,0.1,0,0,0,.07.07V11.5h0.07Zm0,0.16,0.07,0V11.46l-0.07,0v0.11A0.63,0.63,0,0,1,10.67,11.66Zm-0.06-.23-0.07,0s0,0.12,0,.09,0,0.09,0,.09l0.07,0a0.61,0.61,0,0,0,0-.11V11.44m0.07-.86V10.8H10.61V10.58h0l-0.26.29-0.05,0,0.26-.29h-0.2V10.45h0.19a0.11,0.11,0,0,1,.11-0.07,0.11,0.11,0,0,1,.11.11A0.11,0.11,0,0,1,10.68,10.58Zm-0.68,0v0.14H9.93V10.58a0.12,0.12,0,0,1-.07-0.07H9.69V10.45H9.86a0.11,0.11,0,0,1,.21,0h0.17v0.07H10.07A0.1,0.1,0,0,1,10,10.58ZM10.38,12a0.71,0.71,0,0,1-.2.11l0-.07A0.63,0.63,0,0,0,10.32,12l0.05,0m0,0.06a0.81,0.81,0,0,1-.2.11l0.05,0,0.17-.08,0-.07M9.25,10.75l-0.07,0v0.18l0.07,0V10.75m0.07,0,0.07,0v0.18L9.32,11V10.75m1.3,0-0.07,0v0.18l0.07,0V10.75"/><path class="cls-8" d="M10.68,10.75l0.07,0v0.18l-0.07,0V10.75m-0.36.93-0.07,0-0.12-.14,0-.06,0.15,0.17m0.05,0,0-.06-0.12-.14-0.07,0,0.15,0.17M9.6,10.78l0.07,0,0.12,0.14,0,0.06L9.6,10.78m-0.05,0,0,0.06L9.62,11l0.07,0-0.15-.17m0.79,0-0.07,0-0.12.14,0,0.06,0.15-.17m0.05,0,0,0.06L10.3,11l-0.07,0,0.15-.17m-0.86.38,0-.07H9.73l0,0.07H9.52m0,0.06,0,0.07H9.73l0-.07H9.52m-0.28-.79a0,0,0,0,1,0,0,0,0,0,1,1,0,.09A0,0,0,0,1,9.24,10.48Zm0.51,0,0,0.07H9.54l0-.07H9.75m0-.07,0-.07H9.54l0,0.07H9.75m0.67,0.76,0-.07H10.2l0,0.07h0.24m0,0.06,0,0.07H10.2l0-.07h0.24m-0.42.6,0.07,0V11.66l-0.07,0v0.23m-0.07,0-0.07,0V11.66l0.07,0v0.23m0.25-1.35,0,0.07H10.4l0-.07H10.18m0-.07,0-.07H10.4l0,0.07H10.18"/><path class="cls-1" d="M9.93,10.66l-0.07,0v0.18l0.07,0V10.66m0.07,0,0.07,0v0.18l-0.07,0V10.66"/><path class="cls-14" d="M9.86,11.24A0.11,0.11,0,0,1,10,11.13a0.11,0.11,0,0,1,.11.11,0.11,0.11,0,0,1-.11.11,0.11,0.11,0,0,1-.11-0.11"/><path class="cls-19" d="M10,8.47v0H9.9a0.25,0.25,0,0,1-.1-0.05,0.16,0.16,0,0,0-.07,0,0.14,0.14,0,0,0-.1,0,0.18,0.18,0,0,1,.07.05,0.21,0.21,0,0,0,.08.06H10"/><path class="cls-9" d="M10,8.47v0H9.9a0.25,0.25,0,0,1-.1-0.05,0.16,0.16,0,0,0-.07,0,0.14,0.14,0,0,0-.1,0,0.18,0.18,0,0,1,.07.05,0.21,0.21,0,0,0,.08.06H10Z"/><path class="cls-20" d="M10.3,8.38a0.52,0.52,0,0,0,0,.06s0,0,0,.07v0a0.1,0.1,0,0,1,0,0l0,0,0,0s0,0,0,0a0.1,0.1,0,0,0,0,0l0,0.05a0.23,0.23,0,0,1,0,.06,0.08,0.08,0,0,0,0,0l-0.05,0a0.11,0.11,0,0,1,0,.06,0.21,0.21,0,0,1,0,.07l0,0,0,0a0.24,0.24,0,0,1,0,.08s0,0.1,0,.1l0,0,0,0a0.31,0.31,0,0,1,0,0,0.46,0.46,0,0,0,.08.19,0.2,0.2,0,0,0,.23.12c0.13,0,.08-0.2.05-0.28a0.74,0.74,0,0,1,0-.2s0-.12,0-0.14a0.3,0.3,0,0,1,0-.13l0-.1a0.19,0.19,0,0,0,0-.05,0.45,0.45,0,0,0,0-.06,0.33,0.33,0,0,1,0,.06,0.22,0.22,0,0,1,0,.06,0.09,0.09,0,0,1,0-.07l0.09-.06v0a0.29,0.29,0,0,1,0,.11l-0.07.08h0.08l-0.06.07a1,1,0,0,0,0,.09,0.18,0.18,0,0,1-.07.06,0.26,0.26,0,0,0,0,.2,2,2,0,0,1,.08.24,0.23,0.23,0,0,1-.06.2,0.43,0.43,0,0,1-.14,0,0.13,0.13,0,0,0-.05.12,0.1,0.1,0,0,0,0,.1,0.53,0.53,0,0,1,.05,0l0,0a0,0,0,0,1,0,0l0,0.08a0.71,0.71,0,0,0,0,.1,0.11,0.11,0,0,0,0,.06s0,0,0,.05a0.09,0.09,0,0,1,0,0l0,0s0,0,0,0,0,0,0,0a0,0,0,0,0,0,0s0,0,0,0l0,0a0,0,0,0,1,0,0,0,0,0,0,1,0,0s0,0,0,0h0a0,0,0,0,1,0,0s0,0,0,0a0,0,0,0,1,0,0,0.1,0.1,0,0,1,.06,0,0.06,0.06,0,0,0,0,0,0.05,0.05,0,0,0,0-.06l0,0v0a0.3,0.3,0,0,1,0,.06,0.12,0.12,0,0,0,0,0l0,0a0.2,0.2,0,0,1,0-.06V9.62a0.09,0.09,0,0,1,0,0,0.09,0.09,0,0,1,0,0l0,0,0-.06a0.19,0.19,0,0,1,0-.06l0,0H10.05s-0.05,0-.06,0a0.19,0.19,0,0,0,0,.12,0.2,0.2,0,0,1,0,.09l0,0H9.79a0,0,0,0,0,0,0s0,0,0,0h0s0,0,0,0a0.09,0.09,0,0,1,0,0s0,0,0,0h0a0,0,0,0,1,0,0,0,0,0,0,1,0,0s0,0,0,0a0.11,0.11,0,0,0,.06,0s0,0,0,0,0,0,0,0l0,0s0,0,0,0a0.27,0.27,0,0,1,0,.06,0.08,0.08,0,0,0,.08,0s0.05,0,.05,0,0,0,0,0v0a0.05,0.05,0,0,0,0,0l0,0a0.38,0.38,0,0,1,0,0,0.27,0.27,0,0,1,0,0,0.18,0.18,0,0,0,0,0v0a0.26,0.26,0,0,0,0,0,0.07,0.07,0,0,1,0-.06s0-.07,0-0.08a0.12,0.12,0,0,1,.08-0.07h0.2L9.92,9.14A0.4,0.4,0,0,1,9.84,9a0.35,0.35,0,0,1,0-.06h0l0,0,0,0s0,0,0,0,0,0,0,0a0.14,0.14,0,0,1,0,.07l-0.06,0V9a0.1,0.1,0,0,1,0,0,0.1,0.1,0,0,0-.08,0,0.3,0.3,0,0,1,0,.06l0,0H9.39a0,0,0,0,1,0,0,0.08,0.08,0,0,0,0,0h0s0,0,0,0a0.09,0.09,0,0,0,0,0s0,0,0,0h0s0,0,0,0,0,0,0,0l0,0s0,0,0,0a0.46,0.46,0,0,0,0,0H9.51l0.06,0,0.07,0,0,0,0,0-0.08,0-0.07,0h0l0,0h0l-0.05,0h0l0.06,0h0l0,0,0,0a0,0,0,0,0,0,0h0a0,0,0,0,1,0,0,0,0,0,0,0,0,0s0,0,0,0H9.31a0.08,0.08,0,0,0,0,0s0,0,0,0l0,0s0,0,0,0a0.32,0.32,0,0,0,0,0,0.05,0.05,0,0,0,0,0s0,0,0,0l0,0s0,0,0,0l0,0a0.06,0.06,0,0,0,0,.06,0.15,0.15,0,0,0,0,.06l0.07,0L9.64,8.62H9.83s0.05,0,0,0a0.28,0.28,0,0,1-.06-0.06s0,0,.05,0,0.07,0,.08,0,0-.07,0-0.08a0.09,0.09,0,0,1-.08,0s0,0,0,0H10l0,0,0.06,0,0.11,0.07a0.42,0.42,0,0,1,.14.1"/><path d="M9.88,8.35v0h0a0,0,0,0,1,0,0,0,0,0,0,1,0,0h0"/><path class="cls-21" d="M9.88,8.35v0h0a0,0,0,0,1,0,0,0,0,0,0,1,0,0h0Z"/><path class="cls-21" d="M10,8.29v0h0a0.08,0.08,0,0,1,0,0H10"/><path class="cls-1" d="M10,8.29v0h0a0.08,0.08,0,0,1,0,0H10Z"/><path class="cls-1" d="M10.26,8.54l0,0v0"/><path class="cls-9" d="M9.42,8.34l0,0h0a0.05,0.05,0,0,0,0,0,0.07,0.07,0,0,0-.05-0.06,0.06,0.06,0,0,1,0,0l0,0"/><path class="cls-1" d="M9.42,8.34l0,0h0a0.05,0.05,0,0,0,0,0,0.07,0.07,0,0,0-.05-0.06,0.06,0.06,0,0,1,0,0Z"/><path class="cls-9" d="M9.33,8.39a0.06,0.06,0,0,0-.05,0,0.1,0.1,0,0,0-.06,0h0a0.08,0.08,0,0,1,0,0l0,0v0"/><path class="cls-1" d="M9.33,8.39a0.06,0.06,0,0,0-.05,0,0.1,0.1,0,0,0-.06,0h0a0.08,0.08,0,0,1,0,0l0,0v0Z"/><path class="cls-19" d="M9.28,8.52a0.08,0.08,0,0,0,0,0,0.09,0.09,0,0,0,0,.06l0,0h0v0a0.06,0.06,0,0,0,0,0"/><path class="cls-9" d="M9.28,8.52a0.08,0.08,0,0,0,0,0,0.09,0.09,0,0,0,0,.06l0,0h0v0A0.06,0.06,0,0,0,9.28,8.52Z"/><path d="M9.88,8.51v0h0"/><path class="cls-21" d="M9.88,8.51v0h0"/><path d="M9.91,8.51l0,0,0,0h0"/><path class="cls-21" d="M9.91,8.51l0,0,0,0h0"/><path class="cls-21" d="M9.89,8.38h0v0"/><path class="cls-1" d="M9.89,8.38h0v0"/><path class="cls-21" d="M9.94,8.39h0l0,0v0"/><path class="cls-1" d="M9.94,8.39h0l0,0v0"/><path class="cls-1" d="M9.71,8.64l0,0a0.08,0.08,0,0,0,0,0,0.09,0.09,0,0,1,.06,0H9.82a0.1,0.1,0,0,0,0,.06s0,0,0,0a0.24,0.24,0,0,1,0,.07h0l0.07,0a0.14,0.14,0,0,0,0,0,0.14,0.14,0,0,0,0,.06,0.35,0.35,0,0,1,0,.07l0,0,0,0a0.19,0.19,0,0,0,0,0,0.15,0.15,0,0,0,0,.06l0,0.07a0.15,0.15,0,0,1,0,0,0.09,0.09,0,0,0,0,0s0,0,0,0l0,0m-0.47,0a0.17,0.17,0,0,1,0,0l0,0,0,0M9.83,9L9.89,9a0.16,0.16,0,0,0,0,0"/><path class="cls-19" d="M9.39,8.93a0.06,0.06,0,0,0,0,0,0.09,0.09,0,0,0,0,0h0l0,0,0,0v0"/><path class="cls-9" d="M9.39,8.93a0.06,0.06,0,0,0,0,0,0.09,0.09,0,0,0,0,0h0l0,0,0,0v0h0Z"/><path class="cls-9" d="M9.35,9a0.06,0.06,0,0,0,0,0,0.09,0.09,0,0,0,0,.05H9.36v0a0.07,0.07,0,0,0,0,0"/><path class="cls-1" d="M9.35,9a0.06,0.06,0,0,0,0,0,0.09,0.09,0,0,0,0,.05H9.36v0A0.07,0.07,0,0,0,9.35,9Z"/><path class="cls-9" d="M9.41,9.16a0.11,0.11,0,0,0,0,.05,0.08,0.08,0,0,0,0,0,0.11,0.11,0,0,1,0,0,0,0,0,0,1,0,0H9.41"/><path class="cls-1" d="M9.41,9.16a0.11,0.11,0,0,0,0,.05,0.08,0.08,0,0,0,0,0,0.11,0.11,0,0,1,0,0,0,0,0,0,1,0,0H9.41Z"/><path class="cls-1" d="M10.09,9.21a0.17,0.17,0,0,1,.08.1,0.25,0.25,0,0,1,0,.1"/><path class="cls-9" d="M9.71,9.45a0.07,0.07,0,0,0,0,0,0.11,0.11,0,0,0-.06,0,0.06,0.06,0,0,1,0,0l0,0h0l0,0"/><path class="cls-1" d="M9.71,9.45a0.07,0.07,0,0,0,0,0,0.11,0.11,0,0,0-.06,0,0.06,0.06,0,0,1,0,0l0,0h0Z"/><path class="cls-19" d="M9.62,9.56a0.07,0.07,0,0,0-.06,0,0.1,0.1,0,0,0,0,.06,0.09,0.09,0,0,1,0,0h0v0a0.19,0.19,0,0,0,0,0"/><path class="cls-9" d="M9.62,9.56a0.07,0.07,0,0,0-.06,0,0.1,0.1,0,0,0,0,.06,0.09,0.09,0,0,1,0,0h0v0A0.19,0.19,0,0,0,9.62,9.56Z"/><path class="cls-9" d="M9.7,9.68a0,0,0,0,0,0,0,0.1,0.1,0,0,0,0,0,0,0,0,0,1,0,0,0.09,0.09,0,0,1,0,0H9.7"/><path class="cls-1" d="M9.7,9.68a0,0,0,0,0,0,0,0.1,0.1,0,0,0,0,0,0,0,0,0,1,0,0,0.09,0.09,0,0,1,0,0H9.7Z"/><path class="cls-19" d="M10.21,9.73H10.16a0.13,0.13,0,0,0,0,.06,0.09,0.09,0,0,1,.05,0h0a0.09,0.09,0,0,0,0,0v0"/><path class="cls-9" d="M10.21,9.73H10.16a0.13,0.13,0,0,0,0,.06,0.09,0.09,0,0,1,.05,0h0a0.09,0.09,0,0,0,0,0v0Z"/><path class="cls-19" d="M10.23,9.85a0.06,0.06,0,0,0,0,0l0,0a0.08,0.08,0,0,1,0,0h0l0,0,0,0"/><path class="cls-9" d="M10.23,9.85a0.06,0.06,0,0,0,0,0l0,0a0.08,0.08,0,0,1,0,0h0l0,0Z"/><path class="cls-19" d="M10.35,9.89a0,0,0,0,0,0,.05l0,0a0.1,0.1,0,0,1,0,0l0,0H10.35"/><path class="cls-9" d="M10.35,9.89a0,0,0,0,0,0,.05l0,0a0.1,0.1,0,0,1,0,0l0,0H10.35Z"/><path class="cls-8" d="M9.05,12.16a0.17,0.17,0,0,1,.13.16,0.19,0.19,0,0,1-.21.17,0.2,0.2,0,0,1-.22-0.17,0.15,0.15,0,0,1,.13-0.16v0l0,0h0l0,0,0,0,0,0,0,0v0l0,0h0v0.07"/><path class="cls-14" d="M8.95,12.59a1.08,1.08,0,0,0-.23-0.12,1.43,1.43,0,0,0-.24,0l0.07,0.06a0.45,0.45,0,0,0,.14.08,0.48,0.48,0,0,0,.25,0"/><path class="cls-14" d="M9,12.61a0.45,0.45,0,0,1,.21-0.12,0.59,0.59,0,0,1,.26,0l-0.06,0a0.29,0.29,0,0,1-.17.06H9"/><path class="cls-12" d="M9,12.47a0.2,0.2,0,0,1,0-.3,0.2,0.2,0,0,1,.07.15,0.22,0.22,0,0,1-.07.15"/><path class="cls-14" d="M8.92,12.69a0.47,0.47,0,0,0,0-.12,0.31,0.31,0,0,0,0-.09H9a0.29,0.29,0,0,1,0,.09,0.86,0.86,0,0,1,0,.1H8.92"/><path class="cls-11" d="M6.81,6.82a0,0,0,0,1,.09,0,0,0,0,0,1-.09,0,0,0,0,0,1,0,0"/><path class="cls-1" d="M6.81,6.82a0,0,0,0,1,.09,0,0,0,0,0,1-.09,0A0,0,0,0,1,6.81,6.82Z"/><path class="cls-11" d="M6.75,6.71a0,0,0,0,1,.09,0,0,0,0,0,1-.09,0,0,0,0,0,1,0,0"/><path class="cls-1" d="M6.75,6.71a0,0,0,0,1,.09,0,0,0,0,0,1-.09,0A0,0,0,0,1,6.75,6.71Z"/><path class="cls-11" d="M6.71,6.59a0,0,0,0,1,.09,0,0,0,0,0,1-.09,0,0,0,0,0,1,0,0"/><path class="cls-1" d="M6.71,6.59a0,0,0,0,1,.09,0,0,0,0,0,1-.09,0A0,0,0,0,1,6.71,6.59Z"/><path class="cls-11" d="M6.7,6.45a0,0,0,0,1,.09,0,0,0,0,0,1-.09,0,0,0,0,0,1,0,0"/><path class="cls-1" d="M6.7,6.45a0,0,0,0,1,.09,0,0,0,0,0,1-.09,0A0,0,0,0,1,6.7,6.45Z"/><path class="cls-11" d="M6.74,6.32a0,0,0,0,1,.09,0,0,0,0,0,1-.09,0,0,0,0,0,1,0,0"/><path class="cls-1" d="M6.74,6.32a0,0,0,0,1,.09,0,0,0,0,0,1-.09,0A0,0,0,0,1,6.74,6.32Z"/><path class="cls-11" d="M6.8,6.2a0,0,0,0,1,.09,0,0,0,0,0,1-.09,0,0,0,0,0,1,0,0"/><path class="cls-1" d="M6.8,6.2a0,0,0,0,1,.09,0,0,0,0,0,1-.09,0A0,0,0,0,1,6.8,6.2Z"/><path class="cls-11" d="M6.89,6.1A0,0,0,0,1,7,6.1a0,0,0,0,1-.09,0,0,0,0,0,1,0,0"/><path class="cls-1" d="M6.89,6.1A0,0,0,0,1,7,6.1a0,0,0,0,1-.09,0A0,0,0,0,1,6.89,6.1Z"/><path class="cls-11" d="M7,6a0,0,0,0,1,.09,0A0,0,0,0,1,7,6,0,0,0,0,1,7,6"/><path class="cls-1" d="M7,6a0,0,0,0,1,.09,0A0,0,0,0,1,7,6,0,0,0,0,1,7,6Z"/><path class="cls-11" d="M7.13,6a0,0,0,0,1,.09,0,0,0,0,0,1-.09,0,0,0,0,0,1,0,0"/><path class="cls-1" d="M7.13,6a0,0,0,0,1,.09,0,0,0,0,0,1-.09,0A0,0,0,0,1,7.13,6Z"/><path class="cls-11" d="M7.26,5.9a0,0,0,0,1,.09,0,0,0,0,0,1-.09,0,0,0,0,0,1,0,0"/><path class="cls-1" d="M7.26,5.9a0,0,0,0,1,.09,0,0,0,0,0,1-.09,0A0,0,0,0,1,7.26,5.9Z"/><path class="cls-11" d="M7.41,5.88a0,0,0,0,1,.09,0,0,0,0,0,1-.09,0,0,0,0,0,1,0,0"/><path class="cls-1" d="M7.41,5.88a0,0,0,0,1,.09,0,0,0,0,0,1-.09,0A0,0,0,0,1,7.41,5.88Z"/><path class="cls-11" d="M7.55,5.87a0,0,0,0,1,.09,0,0,0,0,0,1-.09,0,0,0,0,0,1,0,0"/><path class="cls-1" d="M7.55,5.87a0,0,0,0,1,.09,0,0,0,0,0,1-.09,0A0,0,0,0,1,7.55,5.87Z"/><path class="cls-11" d="M7.69,5.87a0,0,0,0,1,.09,0,0,0,0,0,1-.09,0,0,0,0,0,1,0,0"/><path class="cls-1" d="M7.69,5.87a0,0,0,0,1,.09,0,0,0,0,0,1-.09,0A0,0,0,0,1,7.69,5.87Z"/><path class="cls-11" d="M7.82,5.87a0,0,0,0,1,.09,0,0,0,0,0,1-.09,0,0,0,0,0,1,0,0"/><path class="cls-1" d="M7.82,5.87a0,0,0,0,1,.09,0,0,0,0,0,1-.09,0A0,0,0,0,1,7.82,5.87Z"/><path class="cls-11" d="M7.76,6a0,0,0,0,1,.09,0,0,0,0,0,1-.09,0,0,0,0,0,1,0,0"/><path class="cls-11" d="M7.73,6.12a0,0,0,0,1,.09,0,0,0,0,0,1-.09,0,0,0,0,0,1,0,0"/><path class="cls-11" d="M7.72,6.25a0,0,0,0,1,.09,0,0,0,0,0,1-.09,0,0,0,0,0,1,0,0"/><path class="cls-11" d="M7.76,6.37a0,0,0,0,1,.09,0,0,0,0,0,1-.09,0,0,0,0,0,1,0,0"/><path class="cls-11" d="M7.84,6.48a0,0,0,0,1,.09,0,0,0,0,0,1-.09,0,0,0,0,0,1,0,0"/><path class="cls-11" d="M7.93,5.79a0,0,0,0,1,.09,0,0,0,0,0,1-.09,0,0,0,0,0,1,0,0"/><path class="cls-1" d="M7.93,5.79a0,0,0,0,1,.09,0,0,0,0,0,1-.09,0A0,0,0,0,1,7.93,5.79Z"/><path class="cls-11" d="M8.05,5.72a0,0,0,0,1,.09,0,0,0,0,0,1-.09,0,0,0,0,0,1,0,0"/><path class="cls-1" d="M8.05,5.72a0,0,0,0,1,.09,0,0,0,0,0,1-.09,0A0,0,0,0,1,8.05,5.72Z"/><path class="cls-11" d="M8.19,5.68a0,0,0,0,1,.09,0,0,0,0,0,1-.09,0,0,0,0,0,1,0,0"/><path class="cls-1" d="M8.19,5.68a0,0,0,0,1,.09,0,0,0,0,0,1-.09,0A0,0,0,0,1,8.19,5.68Z"/><path class="cls-11" d="M8.33,5.66a0,0,0,0,1,.09,0,0,0,0,0,1-.09,0,0,0,0,0,1,0,0"/><path class="cls-1" d="M8.33,5.66a0,0,0,0,1,.09,0,0,0,0,0,1-.09,0A0,0,0,0,1,8.33,5.66Z"/><path class="cls-11" d="M8.46,5.66a0,0,0,0,1,.09,0,0,0,0,0,1-.09,0,0,0,0,0,1,0,0"/><path class="cls-1" d="M8.46,5.66a0,0,0,0,1,.09,0,0,0,0,0,1-.09,0A0,0,0,0,1,8.46,5.66Z"/><path class="cls-11" d="M8.61,5.69a0,0,0,0,1,.09,0,0,0,0,0,1-.09,0,0,0,0,0,1,0,0"/><path class="cls-1" d="M8.61,5.69a0,0,0,0,1,.09,0,0,0,0,0,1-.09,0A0,0,0,0,1,8.61,5.69Z"/><path class="cls-11" d="M8.74,5.73a0,0,0,0,1,.09,0,0,0,0,0,1-.09,0,0,0,0,0,1,0,0"/><path class="cls-1" d="M8.74,5.73a0,0,0,0,1,.09,0,0,0,0,0,1-.09,0A0,0,0,0,1,8.74,5.73Z"/><path class="cls-16" d="M9.94,6.52l0-.07A0.38,0.38,0,0,0,10,6.16a0.14,0.14,0,0,0,0,0,0.52,0.52,0,0,0-.57-0.39,0.76,0.76,0,0,0-.37.09,0.53,0.53,0,0,1,0,.07,0.64,0.64,0,0,1,.36-0.1,0.44,0.44,0,0,1,.5.32s0,0,0,0a0.31,0.31,0,0,1-.15.26L9.88,6.56l0.06,0"/><path class="cls-8" d="M9.94,6.52l0-.07A0.38,0.38,0,0,0,10,6.16a0.14,0.14,0,0,0,0,0,0.52,0.52,0,0,0-.57-0.39,0.76,0.76,0,0,0-.37.09,0.53,0.53,0,0,1,0,.07,0.64,0.64,0,0,1,.36-0.1,0.44,0.44,0,0,1,.5.32s0,0,0,0a0.31,0.31,0,0,1-.15.26L9.88,6.56l0.06,0"/><path class="cls-8" d="M9.94,6.53l0-.07A0.38,0.38,0,0,0,10,6.17a0.14,0.14,0,0,0,0,0,0.36,0.36,0,0,0-.14-0.25,0.41,0.41,0,0,1,.23.34,0.38,0.38,0,0,1-.17.31"/><path class="cls-10" d="M9.94,6.53l0-.07A0.38,0.38,0,0,0,10,6.17a0.14,0.14,0,0,0,0,0,0.36,0.36,0,0,0-.14-0.25,0.41,0.41,0,0,1,.23.34,0.38,0.38,0,0,1-.17.31"/><path class="cls-16" d="M10.89,6.67L11,6.78l-0.06,0L10.8,6.65a0.3,0.3,0,0,0,.11-0.24,0.32,0.32,0,0,0,0-.13A0.68,0.68,0,0,0,10.27,6L10.06,6,10,6l0.25,0a0.76,0.76,0,0,1,.68.31,0.35,0.35,0,0,1,0,.16,0.39,0.39,0,0,1-.1.25"/><path class="cls-8" d="M10.89,6.67L11,6.78l-0.06,0L10.8,6.65a0.3,0.3,0,0,0,.11-0.24,0.32,0.32,0,0,0,0-.13A0.68,0.68,0,0,0,10.27,6L10.06,6,10,6l0.25,0a0.76,0.76,0,0,1,.68.31,0.35,0.35,0,0,1,0,.16,0.39,0.39,0,0,1-.1.25h0Z"/><path class="cls-16" d="M10.78,6.08a0.51,0.51,0,0,1,.27.42,0.45,0.45,0,0,1-.1.27l-0.07-.11A0.38,0.38,0,0,0,11,6.42a0.37,0.37,0,0,0,0-.16,0.45,0.45,0,0,0-.17-0.18"/><path class="cls-10" d="M11.05,6.5a0.45,0.45,0,0,1-.1.27l-0.07-.11A0.38,0.38,0,0,0,11,6.42a0.37,0.37,0,0,0,0-.16,0.45,0.45,0,0,0-.17-0.18A0.49,0.49,0,0,1,11.05,6.5Z"/><path class="cls-11" d="M11.06,6.82a0,0,0,0,1-.09,0,0,0,0,0,1,.09,0,0,0,0,0,1,0,0"/><path class="cls-1" d="M11,6.86a0,0,0,1,1,0-.08,0,0,0,0,1,0,.08A0,0,0,0,1,11,6.86Z"/><path class="cls-11" d="M11.13,6.71a0,0,0,0,1-.09,0,0,0,0,0,1,.09,0,0,0,0,0,1,0,0"/><path class="cls-1" d="M11.08,6.76a0,0,0,1,1,0-.08,0,0,0,0,1,0,.08A0,0,0,0,1,11.08,6.76Z"/><path class="cls-11" d="M11.17,6.59a0,0,0,0,1-.09,0,0,0,0,0,1,.09,0,0,0,0,0,1,0,0"/><path class="cls-1" d="M11.12,6.63a0,0,0,1,1,0-.08,0,0,0,0,1,0,.08A0,0,0,0,1,11.12,6.63Z"/><path class="cls-11" d="M11.17,6.45a0,0,0,0,1-.09,0,0,0,0,0,1,.09,0,0,0,0,0,1,0,0"/><path class="cls-1" d="M11.13,6.49a0,0,0,1,1,0-.08,0,0,0,0,1,0,.08A0,0,0,0,1,11.13,6.49Z"/><path class="cls-11" d="M11.14,6.32a0,0,0,0,1-.09,0,0,0,0,0,1,.09,0,0,0,0,0,1,0,0"/><path class="cls-1" d="M11.1,6.36a0,0,0,1,1,0-.08,0,0,0,0,1,0,.08A0,0,0,0,1,11.1,6.36Z"/><path class="cls-11" d="M11.07,6.2a0,0,0,0,1-.09,0,0,0,0,0,1,.09,0,0,0,0,0,1,0,0"/><path class="cls-1" d="M11,6.24a0,0,0,1,1,0-.08,0,0,0,0,1,0,.08A0,0,0,0,1,11,6.24Z"/><path class="cls-11" d="M11,6.1a0,0,0,0,1-.09,0,0,0,0,0,1,.09,0,0,0,0,0,1,0,0"/><path class="cls-1" d="M10.93,6.14a0,0,0,1,1,0-.08,0,0,0,0,1,0,.08A0,0,0,0,1,10.93,6.14Z"/><path class="cls-11" d="M10.87,6a0,0,0,0,1-.09,0,0,0,0,0,1,.09,0,0,0,0,0,1,0,0"/><path class="cls-1" d="M10.83,6.06a0,0,0,1,1,0-.08,0,0,0,0,1,0,.08A0,0,0,0,1,10.83,6.06Z"/><path class="cls-11" d="M10.75,6a0,0,0,0,1-.09,0,0,0,0,0,1,.09,0,0,0,0,0,1,0,0"/><path class="cls-1" d="M10.7,6a0,0,0,1,1,0-.08,0,0,0,0,1,0,.08A0,0,0,0,1,10.7,6Z"/><path class="cls-11" d="M10.61,5.9a0,0,0,0,1-.09,0,0,0,0,0,1,.09,0,0,0,0,0,1,0,0"/><path class="cls-1" d="M10.57,5.95a0,0,0,1,1,0-.08,0,0,0,0,1,0,.08A0,0,0,0,1,10.57,5.95Z"/><path class="cls-11" d="M10.47,5.88a0,0,0,0,1-.09,0,0,0,0,0,1,.09,0,0,0,0,0,1,0,0"/><path class="cls-1" d="M10.42,5.92a0,0,0,1,1,0-.08,0,0,0,0,1,0,.08A0,0,0,0,1,10.42,5.92Z"/><path class="cls-11" d="M10.32,5.87a0,0,0,0,1-.09,0,0,0,0,0,1,.09,0,0,0,0,0,1,0,0"/><path class="cls-1" d="M10.28,5.91a0,0,0,1,1,0-.08,0,0,0,0,1,0,.08A0,0,0,0,1,10.28,5.91Z"/><path class="cls-11" d="M10.19,5.87a0,0,0,0,1-.09,0,0,0,0,0,1,.09,0,0,0,0,0,1,0,0"/><path class="cls-1" d="M10.14,5.92a0,0,0,1,1,0-.08,0,0,0,0,1,0,.08A0,0,0,0,1,10.14,5.92Z"/><path class="cls-11" d="M10,5.87a0,0,0,0,1-.09,0,0,0,0,0,1,.09,0,0,0,0,0,1,0,0"/><path class="cls-1" d="M10,5.92a0,0,0,1,1,0-.08,0,0,0,0,1,0,.08A0,0,0,0,1,10,5.92Z"/><path class="cls-11" d="M10.12,6A0,0,0,0,1,10,6a0,0,0,0,1,.09,0,0,0,0,0,1,0,0"/><path class="cls-11" d="M10.15,6.12a0,0,0,0,1-.09,0,0,0,0,0,1,.09,0,0,0,0,0,1,0,0"/><path class="cls-11" d="M10.15,6.25a0,0,0,0,1-.09,0,0,0,0,0,1,.09,0,0,0,0,0,1,0,0"/><path class="cls-11" d="M10.11,6.37a0,0,0,0,1-.09,0,0,0,0,0,1,.09,0,0,0,0,0,1,0,0"/><path class="cls-11" d="M10,6.48a0,0,0,0,1-.09,0,0,0,0,0,1,.09,0,0,0,0,0,1,0,0"/><path class="cls-11" d="M9.95,5.79a0,0,0,0,1-.09,0,0,0,0,0,1,.09,0,0,0,0,0,1,0,0"/><path class="cls-1" d="M9.9,5.84a0,0,0,1,1,0-.08,0,0,0,0,1,0,.08A0,0,0,0,1,9.9,5.84Z"/><path class="cls-11" d="M9.82,5.72a0,0,0,0,1-.09,0,0,0,0,0,1,.09,0,0,0,0,0,1,0,0"/><path class="cls-1" d="M9.78,5.77a0,0,0,1,1,0-.08,0,0,0,0,1,0,.08A0,0,0,0,1,9.78,5.77Z"/><path class="cls-11" d="M9.69,5.68a0,0,0,0,1-.09,0,0,0,0,0,1,.09,0,0,0,0,0,1,0,0"/><path class="cls-1" d="M9.64,5.73a0,0,0,1,1,0-.08,0,0,0,0,1,0,.08A0,0,0,0,1,9.64,5.73Z"/><path class="cls-11" d="M9.55,5.66a0,0,0,0,1-.09,0,0,0,0,0,1,.09,0,0,0,0,0,1,0,0"/><path class="cls-1" d="M9.5,5.7a0,0,0,1,1,0-.08,0,0,0,0,1,0,.08A0,0,0,0,1,9.5,5.7Z"/><path class="cls-11" d="M9.41,5.66a0,0,0,0,1-.09,0,0,0,0,0,1,.09,0,0,0,0,0,1,0,0"/><path class="cls-1" d="M9.37,5.71a0,0,0,1,1,0-.08,0,0,0,0,1,0,.08A0,0,0,0,1,9.37,5.71Z"/><path class="cls-11" d="M9.27,5.69a0,0,0,0,1-.09,0,0,0,0,0,1,.09,0,0,0,0,0,1,0,0"/><path class="cls-1" d="M9.23,5.73a0,0,0,1,1,0-.08,0,0,0,0,1,0,.08A0,0,0,0,1,9.23,5.73Z"/><path class="cls-11" d="M9.14,5.73a0,0,0,0,1-.09,0,0,0,0,0,1,.09,0,0,0,0,0,1,0,0"/><path class="cls-1" d="M9.09,5.78a0,0,0,1,1,0-.08,0,0,0,0,1,0,.08A0,0,0,0,1,9.09,5.78Z"/><path class="cls-8" d="M7.61,8.44h0v0H7.5V8.56H7.57v0.1H7.43V9H7.5v0.6H7.35V9.87H8.51V9.56H8.36V9H8.43V8.66H8.29V8.56H8.36V8.4H8.29v0h0v0H8.18v0h0v0H8.07V8.56H8.14v0.1H8V8.33H8.07V8.17H8v0H8v0H7.9v0h0v0H7.79V8.33H7.86V8.66H7.72V8.56H7.79V8.4H7.72v0h0v0H7.61v0h0ZM7.35,9.87H8.51M7.35,9.56H8.51M7.43,9h1m-0.65-.7H8.07M7.5,8.49H7.78m0.58,0H8.08m-0.51.07H7.72m0.42,0H8.29"/><path class="cls-10" d="M8.12,9.87V9.68a0.16,0.16,0,0,0-.2-0.15,0.16,0.16,0,0,0-.19.15v0.2H8.12Z"/><path class="cls-10" d="M7.8,9.69H7.71a0.15,0.15,0,0,1,0-.11L7.83,9.63A0.09,0.09,0,0,0,7.8,9.69Z"/><path class="cls-10" d="M8.06,9.69h0.1a0.15,0.15,0,0,0,0-.11L8,9.63A0.09,0.09,0,0,1,8.06,9.69Z"/><path class="cls-10" d="M8,9.59l0-.08-0.08,0-0.07,0,0,0.08H8Z"/><path class="cls-10" d="M7.78,9.35V9.15A0.1,0.1,0,0,0,7.68,9a0.1,0.1,0,0,0-.1.1V9.35h0.2Z"/><path class="cls-10" d="M8.07,9.35V9.15A0.1,0.1,0,0,1,8.18,9a0.1,0.1,0,0,1,.1.1V9.35H8.07Z"/><path class="cls-10" d="M8,8.85l0-.19H7.84V8.85H8Z"/><path class="cls-10" d="M8.14,8.85l0-.19H8.31l0,0.19H8.14Z"/><path class="cls-10" d="M7.72,8.85V8.66H7.55l0,0.19H7.72Z"/><path class="cls-17" d="M8.06,9.87V9.7a0.13,0.13,0,0,0-.25,0V9.87H8.06Z"/><path class="cls-17" d="M7.76,9.34V9.16a0.09,0.09,0,0,0-.08-0.1,0.09,0.09,0,0,0-.08.1V9.34H7.76Z"/><path class="cls-17" d="M8.1,9.34V9.16a0.09,0.09,0,0,1,.08-0.1,0.09,0.09,0,0,1,.08.1V9.34H8.1Z"/><path class="cls-9" d="M8.29,10.18a0.67,0.67,0,1,1,.66.75,0.71,0.71,0,0,1-.66-0.75"/><path class="cls-1" d="M8.29,10.18a0.67,0.67,0,1,1,.66.75A0.71,0.71,0,0,1,8.29,10.18Z"/><path class="cls-22" d="M8.49,10.18a0.47,0.47,0,1,1,.46.55,0.51,0.51,0,0,1-.46-0.55"/><path class="cls-17" d="M8.49,10.18a0.47,0.47,0,1,1,.46.55A0.51,0.51,0,0,1,8.49,10.18Z"/><path class="cls-8" d="M8.73,9.8a0.21,0.21,0,0,0-.06.12,0.24,0.24,0,0,0,0,.1,0.06,0.06,0,0,0-.06,0,0.06,0.06,0,0,0-.06.06,0.08,0.08,0,0,0,0,0l0,0a0,0,0,0,1,0,0,0,0,0,0,1,0,0h0v0h0l0,0.07,0,0,0,0,0,0,0,0,0-.07h0v0h0a0,0,0,0,1,0,0,0,0,0,0,1,0,0l0,0a0.08,0.08,0,0,0,0,0,0.06,0.06,0,0,0-.12,0,0.24,0.24,0,0,0,0-.1A0.32,0.32,0,0,0,8.73,9.8"/><path class="cls-1" d="M8.73,9.8a0.21,0.21,0,0,0-.06.12,0.24,0.24,0,0,0,0,.1,0.06,0.06,0,0,0-.06,0,0.06,0.06,0,0,0-.06.06,0.08,0.08,0,0,0,0,0l0,0a0,0,0,0,1,0,0,0,0,0,0,1,0,0h0v0h0l0,0.07,0,0,0,0,0,0,0,0,0-.07h0v0h0a0,0,0,0,1,0,0,0,0,0,0,1,0,0l0,0a0.08,0.08,0,0,0,0,0,0.06,0.06,0,0,0-.12,0,0.24,0.24,0,0,0,0-.1A0.32,0.32,0,0,0,8.73,9.8h0Z"/><path class="cls-16" d="M8.64,10.18H8.82v0H8.64v0Z"/><path class="cls-10" d="M8.64,10.18H8.82v0H8.64v0Z"/><path class="cls-8" d="M9.17,9.8a0.21,0.21,0,0,0-.06.12,0.24,0.24,0,0,0,0,.1,0.06,0.06,0,0,0-.06,0A0.06,0.06,0,0,0,9,10a0.08,0.08,0,0,0,0,0l0,0a0,0,0,0,1,0,0,0,0,0,0,1,0,0h0v0h0l0,0.07,0,0,0,0,0,0,0,0,0-.07h0v0h0a0,0,0,0,1,0,0,0,0,0,0,1,0,0l0,0a0.08,0.08,0,0,0,0,0,0.06,0.06,0,0,0-.12,0,0.24,0.24,0,0,0,0-.1A0.32,0.32,0,0,0,9.17,9.8"/><path class="cls-1" d="M9.17,9.8a0.21,0.21,0,0,0-.06.12,0.24,0.24,0,0,0,0,.1,0.06,0.06,0,0,0-.06,0A0.06,0.06,0,0,0,9,10a0.08,0.08,0,0,0,0,0l0,0a0,0,0,0,1,0,0,0,0,0,0,1,0,0h0v0h0l0,0.07,0,0,0,0,0,0,0,0,0-.07h0v0h0a0,0,0,0,1,0,0,0,0,0,0,1,0,0l0,0a0.08,0.08,0,0,0,0,0,0.06,0.06,0,0,0-.12,0,0.24,0.24,0,0,0,0-.1A0.32,0.32,0,0,0,9.17,9.8h0Z"/><path class="cls-16" d="M9.08,10.18H9.25v0H9.08v0Z"/><path class="cls-10" d="M9.08,10.18H9.25v0H9.08v0Z"/><path class="cls-8" d="M9,10.17a0.21,0.21,0,0,0-.06.12,0.24,0.24,0,0,0,0,.1,0.06,0.06,0,0,0-.06,0,0.06,0.06,0,0,0-.06.06,0.08,0.08,0,0,0,0,0l0,0a0,0,0,0,1,0,0,0,0,0,0,1,0,0h0v0h0l0,0.07,0,0,0,0,0,0,0,0,0-.07H9v0H9a0,0,0,0,1,0,0,0,0,0,0,1,0,0l0,0a0.08,0.08,0,0,0,0,0,0.06,0.06,0,0,0-.12,0,0.24,0.24,0,0,0,0-.1A0.29,0.29,0,0,0,9,10.17"/><path class="cls-1" d="M9,10.17a0.21,0.21,0,0,0-.06.12,0.24,0.24,0,0,0,0,.1,0.06,0.06,0,0,0-.06,0,0.06,0.06,0,0,0-.06.06,0.08,0.08,0,0,0,0,0l0,0a0,0,0,0,1,0,0,0,0,0,0,1,0,0h0v0h0l0,0.07,0,0,0,0,0,0,0,0,0-.07H9v0H9a0,0,0,0,1,0,0,0,0,0,0,1,0,0l0,0a0.08,0.08,0,0,0,0,0,0.06,0.06,0,0,0-.12,0,0.24,0.24,0,0,0,0-.1A0.29,0.29,0,0,0,9,10.17H9Z"/><path class="cls-16" d="M8.86,10.56H9v0H8.86v0Z"/><path class="cls-10" d="M8.86,10.56H9v0H8.86v0Z"/><path class="cls-8" d="M10.28,8.21H10.19a0,0,0,0,1,0,0H10.13s0,0,0-.06h0a0.16,0.16,0,0,1,0,.05v0a0.32,0.32,0,0,1,.12.07,0.4,0.4,0,0,1,.1.1l0,0h0.07s-0.06,0-.06,0h0a0,0,0,0,1,0,0h0a0,0,0,0,1,0,0,0,0,0,0,1,0,0h0a0,0,0,0,1,0,0h0"/><path class="cls-1" d="M10.28,8.21H10.19a0,0,0,0,1,0,0H10.13s0,0,0-.06h0a0.16,0.16,0,0,1,0,.05v0a0.32,0.32,0,0,1,.12.07,0.4,0.4,0,0,1,.1.1l0,0h0.07s-0.06,0-.06,0h0a0,0,0,0,1,0,0h0a0,0,0,0,1,0,0,0,0,0,0,1,0,0h0a0,0,0,0,1,0,0h0Z"/><path d="M10.18,8.23h0"/><path class="cls-21" d="M10.18,8.23h0Z"/><path d="M10.22,8.27h0"/><path class="cls-21" d="M10.22,8.27h0"/><path d="M10.15,8.22h0"/><path class="cls-21" d="M10.15,8.22h0"/><path d="M10.11,8.19h0"/><path class="cls-21" d="M10.11,8.19h0Z"/><path d="M10.27,8.3h0"/><path class="cls-21" d="M10.27,8.3h0Z"/><path d="M10.29,8.33h0"/><path class="cls-21" d="M10.29,8.33h0"/><path d="M10.33,8.36h0"/><path class="cls-21" d="M10.33,8.36h0Z"/><path class="cls-8" d="M10.22,8.11h0v0h0l0,0v0"/><path class="cls-1" d="M10.22,8.11h0v0h0l0,0v0"/><path class="cls-8" d="M10.15,8.13v0h0l0,0h0"/><path class="cls-1" d="M10.15,8.13v0h0l0,0h0"/><path class="cls-8" d="M10.23,8.17h0l0,0h0v0"/><path class="cls-1" d="M10.23,8.17h0l0,0h0v0"/><path class="cls-10" d="M10.18,8.15h0a0,0,0,0,1,0,0h0"/><path class="cls-1" d="M10.18,8.15h0a0,0,0,0,1,0,0h0Z"/><path class="cls-8" d="M10.09,8.11v0l0,0h0a0,0,0,0,1,0,0h0"/><path class="cls-1" d="M10.09,8.11v0l0,0h0a0,0,0,0,1,0,0h0Z"/><path class="cls-16" d="M10.13,8.13h0l0,0h0v0"/><path class="cls-8" d="M10.13,8.13h0l0,0h0v0"/><path class="cls-8" d="M10.09,8.11h0a0,0,0,0,1,0,0h0"/><path class="cls-10" d="M10.09,8.11h0a0,0,0,0,1,0,0h0Z"/><path class="cls-8" d="M10.31,8.17h0v0h0l0,0v0"/><path class="cls-1" d="M10.31,8.17h0v0h0l0,0v0"/><path class="cls-16" d="M10.24,8.18v0h0l0,0h0"/><path class="cls-8" d="M10.24,8.18v0h0l0,0h0"/><path class="cls-8" d="M10.31,8.23h0l0,0h0v0"/><path class="cls-1" d="M10.31,8.23h0l0,0h0v0"/><path class="cls-10" d="M10.27,8.2h0a0,0,0,0,1,0,0"/><path class="cls-1" d="M10.27,8.2h0A0,0,0,0,1,10.27,8.2Z"/><path class="cls-8" d="M10.39,8.25v0h0v0h0"/><path class="cls-1" d="M10.39,8.25v0h0v0h0"/><path class="cls-8" d="M10.38,8.31h0v0h0v0"/><path class="cls-1" d="M10.38,8.31h0v0h0v0"/><path class="cls-8" d="M10.32,8.25v0h0v0h0"/><path class="cls-1" d="M10.32,8.25v0h0v0h0"/><path class="cls-16" d="M10.36,8.29h0"/><path class="cls-10" d="M10.36,8.29h0Z"/><path class="cls-8" d="M10.42,8.36h0.05a0,0,0,0,0,0,0,0,0,0,0,0,0,0h0"/><path class="cls-1" d="M10.42,8.36h0.05a0,0,0,0,0,0,0,0,0,0,0,0,0,0h0Z"/><path class="cls-8" d="M10.39,8.32v0l0,0h0v0h0"/><path class="cls-1" d="M10.39,8.32v0l0,0h0v0h0"/><path class="cls-16" d="M10.42,8.36h0"/><path class="cls-10" d="M10.42,8.36h0Z"/><path class="cls-8" d="M6.16,7.94s0,0,0,0h0a1.21,1.21,0,0,0-.55,0h0s0,0,0,0a1.22,1.22,0,0,0,.25,0Z"/><path class="cls-8" d="M6.36,8H5.45V8.2H6.36V8Z"/><path class="cls-9" d="M5.59,7.78h0l0,0,0,0,0,0a0.11,0.11,0,0,1,0-.08A0.1,0.1,0,0,1,5.5,7.53l0.06,0,0,0H6l0.06,0,0.08,0,0.1,0,0,0a0.14,0.14,0,0,1,0,0,0.1,0.1,0,0,1,0,0l0,0,0,0,0,0,0,0a2.31,2.31,0,0,0-.32,0,2.28,2.28,0,0,0-.31,0"/><path class="cls-1" d="M5.59,7.78h0l0,0,0,0,0,0a0.11,0.11,0,0,1,0-.08A0.1,0.1,0,0,1,5.5,7.53l0.06,0,0,0H6l0.06,0,0.08,0,0.1,0,0,0a0.14,0.14,0,0,1,0,0,0.1,0.1,0,0,1,0,0l0,0,0,0,0,0,0,0a2.31,2.31,0,0,0-.32,0,2.28,2.28,0,0,0-.31,0h0Z"/><path class="cls-8" d="M5.85,7.51a0.09,0.09,0,0,1,.06-0.1,0.12,0.12,0,0,1,0,.2,0.09,0.09,0,0,1-.06-0.1"/><path class="cls-10" d="M5.87,7.51a0,0,0,1,1,0,.06,0,0,0,0,1,0-.06"/><path class="cls-8" d="M5.87,7.41a0,0,0,0,1,0,0,0,0,0,0,1,0,0,0,0,0,0,1-.08,0"/><path class="cls-8" d="M5.93,7.39v0H5.87v0h0V7.34h0v0h0v0h0v0h0v0h0V7.39h0"/><path class="cls-8" d="M5.93,7.39v0H5.87v0h0V7.34h0v0h0v0h0v0h0v0h0V7.39h0"/><path class="cls-8" d="M6,7.39v0H5.86v0h0V7.34h0v0h0v0h0v0h0v0h0V7.39H6"/><path class="cls-8" d="M6,7.39v0H5.86v0h0V7.34h0v0h0v0h0v0h0v0h0V7.39H6"/><path class="cls-8" d="M5.92,7.37a0,0,0,0,1,0,0,0,0,0,0,1-.08,0,0,0,0,0,1,0,0"/><path class="cls-8" d="M5.9,7.77H5.71V7.61A0.22,0.22,0,0,0,5.56,7.5a0,0,0,0,1,0,0,0.24,0.24,0,0,1,.22.15l0,0H6l0,0a0.24,0.24,0,0,1,.22-0.15l0,0a0.2,0.2,0,0,0-.12.11V7.77H5.9"/><path class="cls-8" d="M5.9,7.77H5.71V7.61A0.22,0.22,0,0,0,5.56,7.5a0,0,0,0,1,0,0,0.24,0.24,0,0,1,.22.15l0,0H6l0,0a0.24,0.24,0,0,1,.22-0.15l0,0a0.2,0.2,0,0,0-.12.11V7.77H5.9Z"/><path class="cls-8" d="M5.62,7.86a0.14,0.14,0,0,0,0,0,1.12,1.12,0,0,1,.31,0,1.1,1.1,0,0,1,.31,0l0,0v0a1,1,0,0,0-.28,0,0.92,0.92,0,0,0-.28,0v0h0"/><path class="cls-10" d="M5.62,7.86a0.14,0.14,0,0,0,0,0,1.12,1.12,0,0,1,.31,0,1.1,1.1,0,0,1,.31,0l0,0v0a1,1,0,0,0-.28,0,0.92,0.92,0,0,0-.28,0v0h0"/><path class="cls-8" d="M6.23,7.77l0,0H6.15a0.06,0.06,0,0,1,0,0,0.09,0.09,0,0,1-.06,0,0.06,0.06,0,0,1,0,0,0.09,0.09,0,0,1-.05,0,0.1,0.1,0,0,1,0,0,0.1,0.1,0,0,1,0,0,0.06,0.06,0,0,1,0,0,0.05,0.05,0,0,1,0,0,0.07,0.07,0,0,1-.06,0,0.12,0.12,0,0,1,0,0,0.07,0.07,0,0,1,0,0v0h0v0a1.2,1.2,0,0,1,.31,0,1.09,1.09,0,0,1,.31,0v0"/><path class="cls-10" d="M6.23,7.77l0,0H6.15a0.06,0.06,0,0,1,0,0,0.09,0.09,0,0,1-.06,0,0.06,0.06,0,0,1,0,0,0.09,0.09,0,0,1-.05,0,0.1,0.1,0,0,1,0,0,0.1,0.1,0,0,1,0,0,0.06,0.06,0,0,1,0,0,0.05,0.05,0,0,1,0,0,0.07,0.07,0,0,1-.06,0,0.12,0.12,0,0,1,0,0,0.07,0.07,0,0,1,0,0v0h0v0a1.2,1.2,0,0,1,.31,0,1.09,1.09,0,0,1,.31,0v0h0Z"/><path class="cls-8" d="M5.9,7.67h0a0,0,0,0,0,0,0,0,0,0,0,0,0,0H6v0a0,0,0,0,0,0,0,0,0,0,0,0,0,0h0v0h0a0,0,0,0,0,0,0l0,0h0a0,0,0,0,0,0,0h0l0,0v0a0.17,0.17,0,0,1,0,0h0l0,0h0a0.06,0.06,0,0,1-.06,0l0,0a0.06,0.06,0,0,1,0,0l0,0a0.06,0.06,0,0,1-.05,0,0.06,0.06,0,0,1-.05,0l0,0-0.05,0,0,0a0.06,0.06,0,0,1-.06,0h0l0,0h0l0,0v0l0,0h0a0,0,0,0,0,0,0h0l0,0a0,0,0,0,0,0,0v0h0a0,0,0,0,0,0,0,0,0,0,0,0,0,0v0h0a0,0,0,0,0,0,0,0,0,0,0,0,0,0h0"/><path class="cls-10" d="M5.9,7.67h0a0,0,0,0,0,0,0,0,0,0,0,0,0,0H6v0a0,0,0,0,0,0,0,0,0,0,0,0,0,0h0v0h0a0,0,0,0,0,0,0l0,0h0a0,0,0,0,0,0,0h0l0,0v0a0.17,0.17,0,0,1,0,0h0l0,0h0a0.06,0.06,0,0,1-.06,0l0,0a0.06,0.06,0,0,1,0,0l0,0a0.06,0.06,0,0,1-.05,0,0.06,0.06,0,0,1-.05,0l0,0-0.05,0,0,0a0.06,0.06,0,0,1-.06,0h0l0,0h0l0,0v0l0,0h0a0,0,0,0,0,0,0h0l0,0a0,0,0,0,0,0,0v0h0a0,0,0,0,0,0,0,0,0,0,0,0,0,0v0h0a0,0,0,0,0,0,0,0,0,0,0,0,0,0h0Z"/><path class="cls-8" d="M5.9,7.78a1.12,1.12,0,0,0-.31,0h0a1.35,1.35,0,0,1,.64,0,0,0,0,0,1,0,0h0a1.1,1.1,0,0,0-.31,0"/><path class="cls-8" d="M5.9,7.78a1.12,1.12,0,0,0-.31,0h0a1.35,1.35,0,0,1,.64,0,0,0,0,0,1,0,0h0A1.1,1.1,0,0,0,5.9,7.78Z"/><path class="cls-11" d="M5.78,7.83a0,0,0,0,1,0,0,0,0,0,0,1,0,0,0,0,0,0,1,0,0h0"/><path class="cls-1" d="M5.78,7.83a0,0,0,0,1,0,0,0,0,0,0,1,0,0,0,0,0,0,1,0,0Z"/><path class="cls-12" d="M5.91,7.83h0"/><path class="cls-9" d="M5.91,7.83h0"/><path class="cls-13" d="M5.71,7.85h0"/><path class="cls-14" d="M5.71,7.85h0"/><path class="cls-12" d="M5.59,7.86v0h0v0h0"/><path class="cls-9" d="M5.59,7.86v0h0v0h0"/><path class="cls-11" d="M6,7.83a0,0,0,0,1,0,0,0,0,0,0,1,0,0,0,0,0,0,1,0,0H6"/><path class="cls-1" d="M6,7.83a0,0,0,0,1,0,0,0,0,0,0,1,0,0,0,0,0,0,1,0,0Z"/><path class="cls-13" d="M6.1,7.85h0"/><path class="cls-14" d="M6.1,7.85h0"/><path class="cls-12" d="M6.21,7.86v0h0v0h0"/><path class="cls-9" d="M6.21,7.86v0h0v0h0"/><path class="cls-15" d="M5.9,7.94a1.06,1.06,0,0,1-.26,0,1.19,1.19,0,0,1,.51,0,1.06,1.06,0,0,1-.26,0"/><path class="cls-8" d="M6.22,7.73a0,0,0,0,0,0,0h0a0,0,0,0,0,0,0h0"/><path class="cls-10" d="M6.22,7.73a0,0,0,0,0,0,0h0a0,0,0,0,0,0,0h0Z"/><path class="cls-8" d="M6,7.69H6"/><path class="cls-8" d="M6,7.69H6Z"/><path class="cls-8" d="M5.79,7.69h0"/><path class="cls-8" d="M5.79,7.69h0Z"/><path class="cls-8" d="M5.59,7.73a0,0,0,0,1,0,0h0a0,0,0,0,1,0,0h0"/><path class="cls-10" d="M5.59,7.73a0,0,0,0,1,0,0h0a0,0,0,0,1,0,0h0Z"/><path class="cls-8" d="M5.9,7.57l0,0,0,0.06h0l0-.06,0,0"/><path class="cls-10" d="M5.9,7.57l0,0,0,0.06h0l0-.06,0,0"/><path class="cls-8" d="M5.83,7.66l0,0,0.06,0h0l-0.05,0,0,0"/><path class="cls-10" d="M5.83,7.66l0,0,0.06,0h0l-0.05,0,0,0"/><path class="cls-8" d="M6,7.66l0,0-0.06,0h0L6,7.64l0,0"/><path class="cls-10" d="M6,7.66l0,0-0.06,0h0L6,7.64l0,0"/><path class="cls-8" d="M5.68,7.6l0,0,0,0h0V7.61h0"/><path class="cls-10" d="M5.68,7.6l0,0,0,0h0V7.61h0"/><path class="cls-8" d="M5.62,7.69l0,0,0,0H5.63v0"/><path class="cls-10" d="M5.62,7.69l0,0,0,0H5.63v0"/><path class="cls-8" d="M5.77,7.66v0H5.7l0,0,0,0"/><path class="cls-10" d="M5.77,7.66v0H5.7l0,0,0,0"/><path class="cls-8" d="M5.57,7.7v0H5.5l0,0h0"/><path class="cls-10" d="M5.57,7.7v0H5.5l0,0h0"/><path class="cls-8" d="M5.68,7.67a0,0,0,0,1,0,0,0,0,0,0,1,0,0,0,0,0,0,1,0,0,0,0,0,0,1,0,0"/><path class="cls-10" d="M5.68,7.67a0,0,0,0,1,0,0,0,0,0,0,1,0,0,0,0,0,0,1,0,0A0,0,0,0,1,5.68,7.67Z"/><path class="cls-8" d="M6.13,7.6l0,0,0,0h0V7.61h0"/><path class="cls-10" d="M6.13,7.6l0,0,0,0h0V7.61h0"/><path class="cls-8" d="M6.19,7.69l0,0,0,0H6.18v0"/><path class="cls-10" d="M6.19,7.69l0,0,0,0H6.18v0"/><path class="cls-8" d="M6,7.66v0H6.11l0,0,0,0"/><path class="cls-10" d="M6,7.66v0H6.11l0,0,0,0"/><path class="cls-8" d="M6.24,7.7v0H6.3l0,0h0"/><path class="cls-10" d="M6.24,7.7v0H6.3l0,0h0"/><path class="cls-8" d="M5.89,7.66a0,0,0,0,1,0,0,0,0,0,0,1,0,0,0,0,0,0,1,0,0,0,0,0,0,1,0,0"/><path class="cls-10" d="M5.89,7.66a0,0,0,0,1,0,0,0,0,0,0,1,0,0,0,0,0,0,1,0,0A0,0,0,0,1,5.89,7.66Z"/><path class="cls-8" d="M6.09,7.67a0,0,0,0,1,0,0,0,0,0,0,1,0,0,0,0,0,0,1,0,0,0,0,0,0,1,0,0"/><path class="cls-10" d="M6.09,7.67a0,0,0,0,1,0,0,0,0,0,0,1,0,0,0,0,0,0,1,0,0A0,0,0,0,1,6.09,7.67Z"/><path class="cls-8" d="M5.49,7.73l0,0h0a0.07,0.07,0,0,1,0,0h0"/><path class="cls-10" d="M5.49,7.73l0,0h0a0.07,0.07,0,0,1,0,0h0Z"/><path class="cls-8" d="M5.49,7.72h0s0,0,0,0h0a0,0,0,0,1,0,0"/><path class="cls-10" d="M5.49,7.72h0s0,0,0,0h0A0,0,0,0,1,5.49,7.72Z"/><path class="cls-8" d="M6.32,7.73l0,0h0a0.07,0.07,0,0,0,0,0h0"/><path class="cls-10" d="M6.32,7.73l0,0h0a0.07,0.07,0,0,0,0,0h0Z"/><path class="cls-8" d="M6.32,7.72h0s0,0,0,0h0a0,0,0,0,0,0,0"/><path class="cls-10" d="M6.32,7.72h0s0,0,0,0h0A0,0,0,0,0,6.32,7.72Z"/><path class="cls-10" d="M5.55,8.35H6.26a0.05,0.05,0,0,1,0-.05,0.06,0.06,0,0,1,0-.05H5.55a0.05,0.05,0,0,1,0,.05,0.07,0.07,0,0,1,0,.05"/><path class="cls-1" d="M5.55,8.35H6.26a0.05,0.05,0,0,1,0-.05,0.06,0.06,0,0,1,0-.05H5.55a0.05,0.05,0,0,1,0,.05A0.07,0.07,0,0,1,5.55,8.35Z"/><path class="cls-16" d="M5.57,8.35H6.25a0,0,0,1,1,0,.06H5.57a0,0,0,1,1,0-.06"/><path class="cls-8" d="M5.57,8.35H6.25a0,0,0,1,1,0,.06H5.57A0,0,0,1,1,5.57,8.35Z"/><path class="cls-1" d="M5.55,11.8a0,0,0,0,1,0,0,0.11,0.11,0,0,1-.12.11H6.37a0.11,0.11,0,0,1-.12-0.11,0.08,0.08,0,0,1,0,0H5.55Z"/><path class="cls-15" d="M5.37,10.9a0.24,0.24,0,0,0-.14.13,0.15,0.15,0,0,0,.08.07,0.14,0.14,0,0,1,.07.17,0.23,0.23,0,0,0,.09-0.18,0.24,0.24,0,0,0-.1-0.19"/><path class="cls-1" d="M5.37,10.9a0.24,0.24,0,0,0-.14.13,0.15,0.15,0,0,0,.08.07,0.14,0.14,0,0,1,.07.17,0.23,0.23,0,0,0,.09-0.18A0.24,0.24,0,0,0,5.37,10.9Z"/><path class="cls-11" d="M5.57,11.7H6.24V8.45H5.57V11.7Z"/><path class="cls-1" d="M5.57,11.7H6.24V8.45H5.57V11.7Z"/><path class="cls-9" d="M6.92,9.67a2,2,0,0,0-.67-0.11l-0.32,0a0.74,0.74,0,0,0-.67.35h0L5.11,9.6a0.81,0.81,0,0,1,.75-0.39,2.22,2.22,0,0,1,.39,0,2.05,2.05,0,0,1,.67.09v0.4"/><path class="cls-1" d="M6.92,9.67a2,2,0,0,0-.67-0.11l-0.32,0a0.74,0.74,0,0,0-.67.35h0L5.11,9.6a0.81,0.81,0,0,1,.75-0.39,2.22,2.22,0,0,1,.39,0,2.05,2.05,0,0,1,.67.09v0.4"/><path class="cls-15" d="M5.57,10.07a0.33,0.33,0,0,1-.32-0.14,0.23,0.23,0,0,1,.16-0.19H5.57v0.32"/><path class="cls-1" d="M5.57,10.07a0.33,0.33,0,0,1-.32-0.14,0.23,0.23,0,0,1,.16-0.19H5.57v0.32"/><path class="cls-15" d="M6.24,9.83a0.53,0.53,0,0,1,.24.08h0a0.4,0.4,0,0,1-.25.23V9.83"/><path class="cls-1" d="M6.24,9.83a0.53,0.53,0,0,1,.24.08h0a0.4,0.4,0,0,1-.25.23V9.83"/><path class="cls-12" d="M5.16,10.7a0.65,0.65,0,0,1,.42-0.25l0.33-.14a1,1,0,0,0,.58-0.4h0a2.48,2.48,0,0,1,0,.33,0.94,0.94,0,0,1-.53.39l-0.43.17a0.6,0.6,0,0,0-.35.23L5.16,10.7"/><path class="cls-9" d="M5.16,10.7a0.65,0.65,0,0,1,.42-0.25l0.33-.14a1,1,0,0,0,.58-0.4h0a2.48,2.48,0,0,1,0,.33,0.94,0.94,0,0,1-.53.39l-0.43.17a0.6,0.6,0,0,0-.35.23L5.16,10.7h0Z"/><path class="cls-8" d="M5.53,9.51c0.08,0,.13-0.06.11-0.13s-0.06,0-.12,0l-0.11,0,0.1,0.25H5.57l0-.11h0Zm0-.12h0a0,0,0,0,1,.06,0,0,0,0,0,1,0,.06h0l0-.1"/><path class="cls-8" d="M5.79,9.29H5.72L5.77,9.56,6,9.52h0v0l-0.11,0L5.79,9.29"/><path class="cls-8" d="M6.14,9.51c0-.09.07-0.18,0.12-0.27h0c0,0.07,0,.13-0.08.2L6,9.26H6L6.11,9.51h0"/><path class="cls-8" d="M6.52,9.31l0,0-0.07,0a0.09,0.09,0,0,0-.12.07,0.52,0.52,0,0,0,.13.14,0.05,0.05,0,0,1-.06,0,0.07,0.07,0,0,1-.06,0h0l0,0,0.07,0a0.11,0.11,0,0,0,.14-0.07A0.48,0.48,0,0,0,6.4,9.31s0,0,.06,0a0.06,0.06,0,0,1,.05,0h0"/><path class="cls-8" d="M5.57,8.2H6.25a0,0,0,0,1,0,0,0,0,0,0,1,0,0H5.57A0,0,0,1,1,5.57,8.2Z"/><path class="cls-10" d="M5.55,11.8a0,0,0,0,1,0,0,0.11,0.11,0,0,1-.12.11H6.37a0.11,0.11,0,0,1-.12-0.11,0.08,0.08,0,0,1,0,0H5.55"/><path class="cls-8" d="M5.57,11.74H6.25a0,0,0,1,1,0,.06H5.57A0,0,0,1,1,5.57,11.74Z"/><path class="cls-8" d="M5.44,12.17H6.37V11.93H5.44v0.24Z"/><path class="cls-11" d="M6.54,12.3a0.34,0.34,0,0,1-.16,0,0.37,0.37,0,0,0-.32,0,0.36,0.36,0,0,1-.16,0,0.34,0.34,0,0,1-.16,0,0.35,0.35,0,0,0-.15,0,0.36,0.36,0,0,0-.16,0,0.37,0.37,0,0,1-.16,0v0.1a0.37,0.37,0,0,0,.16,0,0.35,0.35,0,0,1,.16,0,0.35,0.35,0,0,1,.15,0,0.36,0.36,0,0,0,.16,0,0.34,0.34,0,0,0,.16,0,0.37,0.37,0,0,1,.32,0,0.35,0.35,0,0,0,.16,0V12.3"/><path class="cls-17" d="M6.54,12.4a0.34,0.34,0,0,1-.16,0,0.37,0.37,0,0,0-.32,0,0.36,0.36,0,0,1-.16,0,0.34,0.34,0,0,1-.16,0,0.35,0.35,0,0,0-.15,0,0.36,0.36,0,0,0-.16,0,0.37,0.37,0,0,1-.16,0v0.1a0.37,0.37,0,0,0,.16,0,0.35,0.35,0,0,1,.16,0,0.35,0.35,0,0,1,.15,0,0.36,0.36,0,0,0,.16,0,0.34,0.34,0,0,0,.16,0,0.37,0.37,0,0,1,.32,0,0.35,0.35,0,0,0,.16,0V12.4"/><path class="cls-11" d="M6.54,12.59a0.34,0.34,0,0,1-.16,0,0.37,0.37,0,0,0-.32,0,0.36,0.36,0,0,1-.16,0,0.34,0.34,0,0,1-.16,0,0.35,0.35,0,0,0-.15,0,0.36,0.36,0,0,0-.16,0,0.37,0.37,0,0,1-.16,0V12.5a0.37,0.37,0,0,0,.16,0,0.35,0.35,0,0,1,.16,0,0.35,0.35,0,0,1,.15,0,0.36,0.36,0,0,0,.16,0,0.34,0.34,0,0,0,.16,0,0.37,0.37,0,0,1,.32,0,0.36,0.36,0,0,0,.16,0v0.1"/><path class="cls-17" d="M6.54,12.69a0.34,0.34,0,0,1-.16,0,0.37,0.37,0,0,0-.32,0,0.36,0.36,0,0,1-.16,0,0.34,0.34,0,0,1-.16,0,0.35,0.35,0,0,0-.15,0,0.36,0.36,0,0,0-.16,0,0.37,0.37,0,0,1-.16,0v-0.1a0.37,0.37,0,0,0,.16,0,0.35,0.35,0,0,1,.16,0,0.35,0.35,0,0,1,.15,0,0.36,0.36,0,0,0,.16,0,0.34,0.34,0,0,0,.16,0,0.37,0.37,0,0,1,.32,0,0.36,0.36,0,0,0,.16,0v0.1Z"/><path class="cls-17" d="M6.54,12.2a0.34,0.34,0,0,1-.16,0,0.37,0.37,0,0,0-.32,0,0.36,0.36,0,0,1-.16,0,0.34,0.34,0,0,1-.16,0,0.35,0.35,0,0,0-.15,0,0.36,0.36,0,0,0-.16,0,0.37,0.37,0,0,1-.16,0v0.1a0.37,0.37,0,0,0,.16,0,0.35,0.35,0,0,1,.16,0,0.35,0.35,0,0,1,.15,0,0.36,0.36,0,0,0,.16,0,0.34,0.34,0,0,0,.16,0,0.37,0.37,0,0,1,.32,0,0.35,0.35,0,0,0,.16,0V12.2Z"/><rect class="cls-10" x="7.86" y="8.33" width="0.14" height="0.03"/><rect class="cls-10" x="7.57" y="8.56" width="0.15" height="0.03"/><rect class="cls-10" x="7.5" y="8.96" width="0.86" height="0.03"/><rect class="cls-10" x="8.14" y="8.56" width="0.15" height="0.03"/><path class="cls-10" d="M9.35,11.86a0,0,0,0,1,.07,0,0,0,0,0,1,0,.06,0,0,0,0,1-.07,0A0,0,0,0,1,9.35,11.86Z"/><path class="cls-10" d="M10.59,11.86a0,0,0,0,0-.07,0,0,0,0,0,0,0,.06,0,0,0,0,0,.07,0A0,0,0,0,0,10.59,11.86Z"/><polyline class="cls-8" points="9.25 10.75 9.18 10.77 9.18 10.95 9.25 10.97 9.25 10.75"/><polyline class="cls-8" points="9.32 10.75 9.39 10.77 9.39 10.95 9.32 10.97 9.32 10.75"/><path class="cls-8" d="M9.26,11.66l-0.07,0V11.46l0.07,0v0.11A0.63,0.63,0,0,0,9.26,11.66Z"/><path class="cls-8" d="M9.32,11.44l0.07,0s0,0.12,0,.09,0,0.09,0,.09l-0.07,0a0.61,0.61,0,0,1,0-.11V11.44h0Z"/><polyline class="cls-8" points="9.61 11.68 9.68 11.71 9.8 11.57 9.76 11.51 9.61 11.68"/><polyline class="cls-8" points="9.56 11.64 9.52 11.58 9.64 11.44 9.71 11.47 9.56 11.64"/><path class="cls-8" d="M10.67,11.66l0.07,0V11.46l-0.07,0v0.11A0.63,0.63,0,0,1,10.67,11.66Z"/><path class="cls-8" d="M10.61,11.44l-0.07,0s0,0.12,0,.09,0,0.09,0,.09l0.07,0a0.61,0.61,0,0,0,0-.11V11.44"/><path class="cls-8" d="M10.38,12a0.71,0.71,0,0,1-.2.11l0-.07A0.63,0.63,0,0,0,10.32,12l0.05,0"/><path class="cls-8" d="M10.41,12.08a0.81,0.81,0,0,1-.2.11l0.05,0,0.17-.08,0-.07"/><path class="cls-8" d="M9.55,12a0.71,0.71,0,0,0,.2.11l0-.07A0.63,0.63,0,0,1,9.6,12L9.55,12"/><path class="cls-8" d="M9.52,12.08a0.81,0.81,0,0,0,.2.11l-0.05,0L9.5,12.15l0-.07"/><path class="cls-10" d="M10.6,10.48a0,0,0,0,1,0,0,0,0,0,0,1,0,0A0,0,0,0,1,10.6,10.48Z"/><circle class="cls-10" cx="9.97" cy="10.48" r="0.05"/><path class="cls-10" d="M9.92,12.2a0,0,0,0,1,0,0,0,0,0,1,1,0,.09A0.05,0.05,0,0,1,9.92,12.2Z"/></g><path class="cls-5" d="M10,0C9.73,0,0,1,0,1V5S9.73,4,10,4c1.1,0,2,.45,2,1V1c0-.55-0.9-1-2-1"/></svg>