<svg id="Layer_1" data-name="Layer 1" xmlns="http://www.w3.org/2000/svg" viewBox="0 0 24 22.11"><defs><style>.cls-1{fill:#408ec2;}.cls-2{fill:#e6e6e6;}.cls-2,.cls-3,.cls-5,.cls-6,.cls-7{fill-rule:evenodd;}.cls-3{fill:#d46557;}.cls-4{fill:#48a0dc;}.cls-5{fill:#fff;}.cls-6{fill:#ed7161;}.cls-7{fill:#ba594c;}</style></defs><title>Icon</title><path class="cls-1" d="M10,4.11c-1.1,0-2,.45-2,1v16c0,0.55.9,1,2,1,0.19,0,14-1,14-1v-18Z"/><path class="cls-2" d="M24,3.11l-5.15.37L12,7.84V4l-2,.14c-1.1,0-2,.45-2,1v16c0,0.55.9,1,2,1h0.17L12,22V14.86l0.27,0,8.46,6.5L24,21.11V18.82l-5.66-4.35L24,14.11v-6l-4.14.26L24,6.11v-3Z"/><path class="cls-3" d="M24,4.65V3.11l-2,.14L12,9.11l-2,2v2l2.33-.17,10.5,8.25L24,21.11v-1l-9.74-7.3,9.74-.7v-2l-11.69.84Z"/><path class="cls-4" d="M10,0.11c-0.27,0-10,1-10,1v18s9.73-1,10-1c1.1,0,2,.45,2,1v-18c0-.55-0.9-1-2-1"/><path class="cls-5" d="M10,0.11H9V5.67L3,0.8,0,1.11V3.56L3.85,6.79,0,7.11v6l3.37-.28L0,16.26v2.85l3.18-.33L9,13.07v5h1c1.1,0,2,.45,2,1v-18c0-.55-0.89-1-2-1"/><path class="cls-6" d="M8,19.11v2c0,0.55.9,1,2,1v-4c-1.1,0-2,.45-2,1m2-19h0V8.22L2,1.11H0v1l7.2,6.4L0,9.11v2l7.64-.64L0,18.11v1H1l7-7,1.82-1.82H10v7.83c1.1,0,2,.45,2,1v-18c0-.55-0.89-1-2-1"/><path class="cls-7" d="M10,18.11L8,18.3v2.81c0-.55.9-1,2-1s2-.45,2-1-0.9-1-2-1"/></svg>