<svg id="Layer_1" data-name="Layer 1" xmlns="http://www.w3.org/2000/svg" viewBox="0 0 24 22"><defs><style>.cls-1{fill:#d46557;}.cls-2{fill:#e5b75b;}.cls-2,.cls-3{fill-rule:evenodd;}.cls-3{fill:#1a1a1a;}.cls-4{fill:#b18e46;}.cls-5{fill:#ffcb67;}.cls-6{fill:#ec7061;}.cls-7{fill:#333;}</style></defs><title>icon</title><path class="cls-1" d="M10,4C8.9,4,8,4.45,8,5V21c0,0.55.9,1,2,1,0.19,0,14-1,14-1V3Z"/><path class="cls-2" d="M8,17v4c0,0.55.9,1,2,1,0.19,0,14-1,14-1V16.16Z"/><path class="cls-3" d="M24,3L10,4C8.9,4,8,4.45,8,5v6l16-.84V3Z"/><path class="cls-4" d="M8,15v6c0-.55.9-1,2-1s2-.45,2-1V15H8Z"/><path class="cls-5" d="M10,12C9.73,12,0,13,0,13v6s9.73-1,10-1c1.1,0,2,.45,2,1V13c0-.55-0.9-1-2-1"/><path class="cls-6" d="M10,6C9.73,6,0,7,0,7v6s9.73-1,10-1c1.1,0,2,.45,2,1V7c0-.55-0.9-1-2-1"/><path class="cls-7" d="M10,0C9.73,0,0,1,0,1V7S9.73,6,10,6c1.1,0,2,.45,2,1V1c0-.55-0.9-1-2-1"/></svg>