<svg id="Layer_1" data-name="Layer 1" xmlns="http://www.w3.org/2000/svg" viewBox="0 0 18.63 18.5"><defs><style>.cls-1,.cls-2{fill:#fff;}.cls-1{fill-rule:evenodd;}</style></defs><title>Icon</title><path class="cls-1" d="M18.42,0.16S5.24-.52,3.85,7.74a6.13,6.13,0,0,0,1.43,5.6c3,4.22-5.08,5-5.08,5s13.12,0.5,15.55-6.69A6.24,6.24,0,0,0,14.61,5C11.58,0.77,18.42.16,18.42,0.16ZM13.56,9.47a0.46,0.46,0,0,1-.46.46L12.76,10a3,3,0,0,1-.28.67L12.64,11a0.46,0.46,0,0,1,0,.65L12.31,12a0.46,0.46,0,0,1-.65,0l-0.32-.16a2.93,2.93,0,0,1-.67.28l-0.12.35a0.46,0.46,0,0,1-.46.46H9.63a0.46,0.46,0,0,1-.46-0.46l-0.12-.35a2.94,2.94,0,0,1-.67-0.27L8.06,12a0.46,0.46,0,0,1-.65,0l-0.33-.33a0.46,0.46,0,0,1,0-.65l0.16-.32A3,3,0,0,1,7,10L6.62,9.93a0.46,0.46,0,0,1-.46-0.46V9a0.46,0.46,0,0,1,.46-0.46L7,8.43a3,3,0,0,1,.27-0.67L7.08,7.44a0.46,0.46,0,0,1,0-.65l0.33-.33a0.46,0.46,0,0,1,.65,0L8.39,6.62a3,3,0,0,1,.67-0.28L9.17,6a0.46,0.46,0,0,1,.46-0.46h0.46a0.46,0.46,0,0,1,.46.46l0.11,0.34a3,3,0,0,1,.67.28l0.32-.16a0.46,0.46,0,0,1,.65,0l0.33,0.33a0.46,0.46,0,0,1,0,.65l-0.16.32a3,3,0,0,1,.28.67L13.1,8.55a0.46,0.46,0,0,1,.46.46V9.47Z"/><path class="cls-2" d="M9.86,10.83a1.59,1.59,0,1,1,1.59-1.59,1.59,1.59,0,0,1-1.59,1.59"/></svg>