<?xml version="1.0" encoding="utf-8"?>
<!-- Generator: Adobe Illustrator 19.2.1, SVG Export Plug-In . SVG Version: 6.00 Build 0)  -->
<svg version="1.1" id="Layer_1" xmlns="http://www.w3.org/2000/svg" xmlns:xlink="http://www.w3.org/1999/xlink" x="0px" y="0px"
	 viewBox="0 0 18.6 18.5" style="enable-background:new 0 0 18.6 18.5;" xml:space="preserve">
<style type="text/css">
	.st0{fill:#88C057;}
	.st1{fill:#FFFFFF;}
</style>
<title>Icon</title>
<path class="st0" d="M18.4,0.2c0,0-13.2-0.7-14.6,7.6c-0.5,2,0,4.1,1.4,5.6c3,4.2-5.1,5-5.1,5s13.1,0.5,15.5-6.7
	c1-2.3,0.5-4.9-1.1-6.7C11.6,0.8,18.4,0.2,18.4,0.2z"/>
<path class="st1" d="M13.5,9.5c0,0.3-0.2,0.5-0.5,0.5l0,0l-0.3,0.1c-0.1,0.2-0.2,0.5-0.3,0.7l0.2,0.3c0.2,0.2,0.2,0.5,0,0.6L12.2,12
	c-0.2,0.2-0.5,0.2-0.6,0l-0.3-0.2c-0.2,0.1-0.4,0.2-0.7,0.3l-0.1,0.4c0,0.3-0.2,0.5-0.5,0.5l0,0H9.5c-0.3,0-0.5-0.2-0.5-0.5l0,0
	l-0.1-0.4c-0.2-0.1-0.5-0.2-0.7-0.3L8,12c-0.2,0.2-0.5,0.2-0.7,0L7,11.7c-0.2-0.2-0.2-0.5,0-0.6l0.2-0.3c-0.1-0.2-0.2-0.4-0.2-0.7
	L6.5,10c-0.3,0-0.5-0.2-0.5-0.5l0,0V9c0-0.3,0.2-0.5,0.5-0.5l0,0l0.4-0.1C7,8.2,7,8,7.2,7.8L7,7.5C6.8,7.3,6.8,7,7,6.8l0.3-0.3
	c0.2-0.2,0.5-0.2,0.6,0l0.3,0.2C8.5,6.5,8.7,6.4,9,6.4L9.1,6c0-0.3,0.2-0.5,0.5-0.5l0,0H10c0.3,0,0.5,0.2,0.5,0.5l0,0l0.1,0.3
	c0.2,0.1,0.5,0.2,0.7,0.3l0.3-0.2c0.2-0.2,0.5-0.2,0.6,0l0.3,0.3c0.2,0.2,0.2,0.5,0,0.7l-0.2,0.3c0.1,0.2,0.2,0.4,0.3,0.7L13,8.6
	c0.3,0,0.5,0.2,0.5,0.5l0,0V9.5z"/>
<path class="st0" d="M9.8,10.8c-0.9,0-1.6-0.7-1.6-1.6s0.7-1.6,1.6-1.6s1.6,0.7,1.6,1.6c0,0,0,0,0,0C11.3,10.1,10.6,10.8,9.8,10.8
	L9.8,10.8"/>
</svg>
