<svg id="Layer_1" data-name="Layer 1" xmlns="http://www.w3.org/2000/svg" viewBox="0 0 24 22"><defs><style>.cls-1{fill:#d46557;}.cls-2{fill:#ba594c;}.cls-3{fill:#ed7161;}.cls-4{fill:#fc6;}</style></defs><title>Icon</title><path class="cls-1" d="M10,4C8.9,4,8,4.45,8,5V21c0,0.55.9,1,2,1,0.19,0,14-1,14-1V3Z"/><path class="cls-2" d="M8,15v6c0-.55.9-1,2-1s2-.45,2-1V15H8Z"/><path class="cls-3" d="M10,0C9.73,0,0,1,0,1V19s9.73-1,10-1c1.1,0,2,.45,2,1V1c0-.55-0.9-1-2-1"/><path class="cls-4" d="M9,6.27A0.34,0.34,0,0,0,8.73,6L7.09,5.7,6.29,4.18A0.33,0.33,0,0,0,6,4a0.33,0.33,0,0,0-.29.18L4.91,5.7,3.27,6A0.34,0.34,0,0,0,3,6.27a0.37,0.37,0,0,0,.08.35L4.23,7.88,4,9.6a0.36,0.36,0,0,0,.13.33,0.32,0.32,0,0,0,.34,0L6,9.23,7.51,10a0.31,0.31,0,0,0,.14,0,0.32,0.32,0,0,0,.2-0.07A0.36,0.36,0,0,0,8,9.6L7.77,7.88,8.91,6.62A0.37,0.37,0,0,0,9,6.27"/></svg>