<svg id="Layer_1" data-name="Layer 1" xmlns="http://www.w3.org/2000/svg" xmlns:xlink="http://www.w3.org/1999/xlink" viewBox="0 0 80.48 48.88"><defs><style>.cls-1{fill:none;}.cls-2{fill:#9b7cab;}.cls-3{fill:#ccc;}.cls-4{fill:#4d4d4d;}.cls-5{clip-path:url(#clip-path);}.cls-6{fill:#fff;opacity:0.5;}</style><clipPath id="clip-path"><path class="cls-1" d="M57,10.76L44.1,27.33l-15,13.85L10.37,39.09,8.62,37.68,11.7,21.86s13.67-11.18,13.92-11.1S38.37,7.84,38.37,7.84Z"/></clipPath></defs><title>icon</title><path class="cls-2" d="M25.89,35.85a15.3,15.3,0,0,1,28.81,0h16a30.88,30.88,0,0,0-60.89,0h16Z"/><path class="cls-3" d="M80.48,41A40.18,40.18,0,1,0,.12,41q0,0.94,0,1.87H80.42C80.45,42.26,80.48,41.64,80.48,41ZM4.6,42.08c0-.36,0-0.71,0-1.07A35.73,35.73,0,1,1,76,41c0,0.36,0,.71,0,1.07H4.6Z"/><path class="cls-4" d="M33.7,40.39a5.56,5.56,0,0,0,9.71,5.42l9.41-26.06a1.07,1.07,0,1,0-1.87-1Z"/><g class="cls-5"><path class="cls-6" d="M25.89,35.85a15.3,15.3,0,0,1,28.81,0h16a30.88,30.88,0,0,0-60.89,0h16Z"/></g></svg>