<svg id="Layer_1" data-name="Layer 1" xmlns="http://www.w3.org/2000/svg" viewBox="0 0 24 22"><defs><style>.cls-1{fill:#d46557;}.cls-2{fill:#408ec2;}.cls-3{fill:#e6e6e6;}.cls-4{fill:#ba594c;}.cls-5{fill:#ed7161;}.cls-6{fill:#48a0dc;}</style></defs><title>Icon</title><path class="cls-1" d="M10,16c-1.1,0-2-.45-2-1v6c0,0.55.9,1,2,1,0.19,0,14-1,14-1V15s-13.81,1-14,1"/><path class="cls-2" d="M10,10c-1.1,0-2-.45-2-1v6c0,0.55.9,1,2,1,0.19,0,14-1,14-1V9s-13.81,1-14,1"/><path class="cls-3" d="M10,4C8.9,4,8,3.55,8,3V9c0,0.55.9,1,2,1,0.19,0,14-1,14-1V3S10.19,4,10,4"/><path class="cls-4" d="M8,15v6c0-.55.9-1,2-1s2-.45,2-1V15H8Z"/><path class="cls-5" d="M10,12C9.73,12,0,13,0,13v6s9.73-1,10-1c1.1,0,2,.45,2,1V13c0-.55-0.9-1-2-1"/><path class="cls-6" d="M10,6C9.73,6,0,7,0,7v6s9.73-1,10-1c1.1,0,2,.45,2,1V7c0-.55-0.9-1-2-1"/><path class="cls-3" d="M10,0C9.73,0,0,1,0,1V7S9.73,6,10,6c1.1,0,2,.45,2,1V1c0-.55-0.9-1-2-1"/></svg>