<svg id="Layer_1" data-name="Layer 1" xmlns="http://www.w3.org/2000/svg" xmlns:xlink="http://www.w3.org/1999/xlink" viewBox="0 0 24 22"><defs><style>.cls-1{fill:none;}.cls-2{fill:#393f47;}.cls-3{fill:#ccc;}.cls-4{fill:#d65c66;}.cls-5{fill:#23272b;}.cls-6{fill:#434a54;}.cls-7{fill:#e6e6e6;}.cls-8{fill:#eb6468;}.cls-9{clip-path:url(#clip-path);}.cls-10{fill:#d6b340;}.cls-11{clip-path:url(#clip-path-2);}</style><clipPath id="clip-path"><rect class="cls-1" x="12" y="9.9" width="2.93" height="5.5"/></clipPath><clipPath id="clip-path-2"><rect class="cls-1" x="9.07" y="6.84" width="2.93" height="5.5"/></clipPath></defs><title>Icon</title><path class="cls-2" d="M10,15c-1.1,0-2-.45-2-1v7c0,0.55.9,1,2,1,0.19,0,14-1,14-1V14s-13.81,1-14,1"/><path class="cls-3" d="M10,8C8.9,8,8,7.55,8,7v8c0,0.55.9,1,2,1,0.19,0,14-1,14-1V7S10.19,8,10,8"/><path class="cls-4" d="M10,4C8.9,4,8,3.55,8,3V9c0,0.55.9,1,2,1,0.19,0,14-1,14-1V3S10.19,4,10,4"/><path class="cls-5" d="M8,15v6c0-.55.9-1,2-1s2-.45,2-1V15H8Z"/><path class="cls-6" d="M10,12C9.73,12,0,13,0,13v6s9.73-1,10-1c1.1,0,2,.45,2,1V13c0-.55-0.9-1-2-1"/><path class="cls-7" d="M10,4C9.73,4,0,5,0,5v8s9.73-1,10-1c1.1,0,2,.45,2,1V5c0-.55-0.9-1-2-1"/><path class="cls-8" d="M10,0C9.73,0,0,1,0,1V7S9.73,6,10,6c1.1,0,2,.45,2,1V1c0-.55-0.9-1-2-1"/><g class="cls-9"><path class="cls-10" d="M10.54,14.36l0.13,0h0a0.22,0.22,0,0,0-.14,0h0a0,0,0,0,0,0,0h0Z"/><path class="cls-10" d="M10.76,14.43l0.15,0h0a0.48,0.48,0,0,0-.16,0h0Z"/><path class="cls-10" d="M11.39,14.54h0l0.15,0h0a0,0,0,0,0,0,0h0a0.33,0.33,0,0,0-.16,0h0Z"/><path class="cls-10" d="M11.15,14.52h0.16a0,0,0,0,0,0,0,0.12,0.12,0,0,0-.08,0l-0.09,0h0Z"/><path class="cls-10" d="M12.89,14.41h0l0.13,0s0,0,0,0h0a0.25,0.25,0,0,0-.14,0h0Z"/><path class="cls-10" d="M12.66,14.47h0l0.16,0h0a0.52,0.52,0,0,0-.16,0,0,0,0,0,0,0,0h0Z"/><path class="cls-10" d="M12.18,14.51a0.34,0.34,0,0,0-.16,0h0l0.15,0h0Z"/><path class="cls-10" d="M12.33,14.47a0.14,0.14,0,0,0-.08,0h0v0h0.16Z"/><path class="cls-10" d="M10.51,14.69h0a0,0,0,0,0,0,0,0,0,0,0,0,0,0A0,0,0,0,0,10.51,14.69Z"/><path class="cls-10" d="M12,14.8h0a0,0,0,0,0,0,0h0l0,0Z"/><path class="cls-10" d="M12,14.87a0,0,0,0,0,0,0l0,0h0s0,0,0,0a0,0,0,0,0,0,0h0Z"/><path class="cls-10" d="M10.81,14.88l0-.1s0,0,0,0l0,0s0,0,0,0a0.06,0.06,0,0,1,0,0,0,0,0,0,1,0,0s0,0,0,0v-0.1s0,0,0,0,0,0,0,0a0,0,0,0,1,0,0,0,0,0,0,1,0,0s0,0,0,0v0l0-.06,0,0s0,0,0-.05h0a0.07,0.07,0,0,1-.06,0,0,0,0,0,0,0,0,0,0,0,0,0,0,0s0,0,0,0a0.46,0.46,0,0,0,0,.06v0h0l0,0a0.16,0.16,0,0,0,0,.05,0,0,0,0,0,0,0l0.06,0,0.09,0,0.13,0h0S10.81,14.9,10.81,14.88Zm-0.27-.09h0S10.54,14.78,10.53,14.79Z"/><path class="cls-10" d="M10.51,14.87s0,0,0,0h0s0,0,0,0h0Z"/><path class="cls-10" d="M10.59,14.89s0,0,0,0a0,0,0,0,0,0,0h0v0S10.61,14.89,10.59,14.89Z"/><path class="cls-10" d="M13,14.9a0,0,0,0,0,0,0h0.05a0,0,0,0,0,0,0A0,0,0,0,0,13,14.9Z"/><path class="cls-10" d="M10.72,14.93h0v0a0,0,0,0,0,0,0h0A0,0,0,0,0,10.72,14.93Z"/><path class="cls-10" d="M11.34,15s0,0,0,0a0.28,0.28,0,0,1,0-.05,0.27,0.27,0,0,0,0-.05s0,0,0,0a0,0,0,0,1,0,0s0,0,0,0l0,0s0,0,0,0a0.36,0.36,0,0,0,0,.06,0.17,0.17,0,0,0,0,0,0.69,0.69,0,0,0,0,.08,4.2,4.2,0,0,0,0,.09h0A0,0,0,0,0,11.34,15Z"/><path class="cls-10" d="M12.26,14.92a0.36,0.36,0,0,1,0-.06,0,0,0,0,0,0,0l0,0s0,0,0,0a0.16,0.16,0,0,1,0,0s0,0,0,0a0,0,0,0,1,0,0,0.17,0.17,0,0,1,0,0s0,0,0-.07a0.82,0.82,0,0,0,0-.09s0,0,0,0h0l0,0s0,0,0,0v0a0.22,0.22,0,0,1,0,0s0,0,0,0l0,0a0.1,0.1,0,0,0,0,0,0,0,0,0,0,0,0h0.21a0,0,0,0,0,0,0A0.12,0.12,0,0,0,12.26,14.92ZM12.09,15h0s0,0,0,0h0Z"/><path class="cls-10" d="M11.27,14.7h0l0,0s0,0,0,0a0,0,0,0,1,0,0s0,0,0,.07,0,0,0,.07a0.53,0.53,0,0,0,0,.08s0,0,0,0v0s0,0,0,0,0,0,0,0h0s0,0,0,0l0,0a0,0,0,1,0-.1,0h0s0,0,0,.05,0.06,0,0,0a0,0,0,0,1-.05,0,0,0,0,0,1,0,0,0.21,0.21,0,0,0,0-.06s0,0,0,0a0,0,0,0,0,0,.06,0.07,0.07,0,0,1,0,.06,0.07,0.07,0,0,1,0,0s0,0,0,0h0.07a0.08,0.08,0,0,0,.05,0,0.07,0.07,0,0,1,.06,0H11s0,0,0,0a0,0,0,0,0,0,0s0,0,0,0a0.05,0.05,0,0,0,0,0h0a0.07,0.07,0,0,0,0,0,0.19,0.19,0,0,0,0-.06V14.86a0.86,0.86,0,0,0,0-.09V14.71S11.28,14.69,11.27,14.7Zm-0.17.16h0a0,0,0,0,0,0,0A0,0,0,0,1,11.1,14.86Z"/><path class="cls-10" d="M13,14.81a0.15,0.15,0,0,1,0-.09,0.18,0.18,0,0,0,0-.11,0.09,0.09,0,0,0-.07,0h0s0,0,0,0,0,0,.07,0a0.08,0.08,0,0,1,0,.08,0.42,0.42,0,0,0,0,.09s0,0,0,0-0.05,0-.07,0a0.66,0.66,0,0,0,0,.05s0,0-.06,0a0.13,0.13,0,0,0-.07,0,0.21,0.21,0,0,0,0-.08s-0.06,0,0,.06,0,0,0,.06a0.14,0.14,0,0,0,0,.08s0,0,0,0,0,0,0,0a0.15,0.15,0,0,0-.06.06,0.32,0.32,0,0,0,0,.06s0,0,0,0,0,0,0,0-0.06,0-.06,0h0A0.08,0.08,0,0,0,12.54,15s0,0,.07,0,0.06,0,.07,0,0.06,0,.08,0a0.06,0.06,0,0,0,0-.06s0,0,0,0a0.06,0.06,0,0,0,.08,0,0.1,0.1,0,0,1,.06,0l0.15,0s0,0,0,0A0.27,0.27,0,0,1,13,14.81Zm-0.53.12h0Zm0.16,0h0s0,0,0,0a0,0,0,0,1,0,0h0v0Zm0,0h0s0,0,0,0h0a0,0,0,0,1,0,0h0ZM12.75,15h0A0,0,0,0,1,12.75,15Zm0.14-.06h0l0,0h0S12.91,14.89,12.89,14.9Z"/><path class="cls-10" d="M12.38,14.92l0,0v0a0,0,0,0,0,0,0l0,0v0l0,0,0,0a0.16,0.16,0,0,1,0,0v0l0,0h0l0,0,0,0a0.11,0.11,0,0,0,0,0V14.92Z"/><path class="cls-10" d="M12.19,15H12.12a0,0,0,0,0,0,0v0h0l0,0h0l0,0h0a0,0,0,0,0,0,0S12.2,15.05,12.19,15Z"/><path class="cls-10" d="M11.95,14.89a0.16,0.16,0,0,0-.07,0,0.07,0.07,0,0,0,0,.06s0,0,0,0a0.07,0.07,0,0,0,0,0,0.08,0.08,0,0,0-.06,0H11.6s0,0,0,0h0a0,0,0,0,0,0,0,0.1,0.1,0,0,1,0,.06,0,0,0,0,1,0,0,0.35,0.35,0,0,0,0-.08s0,0,0,0a0.31,0.31,0,0,1,0,.07,0.06,0.06,0,0,1,0,.07,0.15,0.15,0,0,1-.07,0s0,0,0,0a0.09,0.09,0,0,0,.08,0,0.21,0.21,0,0,1,0,0h0.13a0.18,0.18,0,0,1,.08,0,0.07,0.07,0,0,0,0,.06l0,0a0.1,0.1,0,0,0,0-.05H12l0,0A0.28,0.28,0,0,0,12,15S12,14.91,11.95,14.89ZM11.76,15a0,0,0,0,1,0,0h0v0H11.56s0,0,0,0h0.19A0.36,0.36,0,0,1,11.76,15Zm0.16,0h0v0h0S11.92,15,11.91,15Z"/><path class="cls-10" d="M12.53,11.77h0a1.44,1.44,0,0,1-.71-0.21h0a1.67,1.67,0,0,1-.72.21h0s0,0.09,0,.12a2.11,2.11,0,0,0,.07.4,2,2,0,0,0,.68,1h0a2,2,0,0,0,.68-1,2.11,2.11,0,0,0,.07-0.4s0-.07,0-0.11h0ZM12.06,13a2.11,2.11,0,0,1-.27.27A2,2,0,0,1,11.49,13V11.72a1.12,1.12,0,0,0,.29-0.13,0.81,0.81,0,0,0,.27.13V13h0Z"/><path class="cls-10" d="M13.57,11.31A0.31,0.31,0,0,0,13.25,11a1,1,0,0,0-.45.15,1,1,0,0,1-.53.16,1.27,1.27,0,0,1-.14-0.62,0.64,0.64,0,0,0-.09-0.46,0.7,0.7,0,0,0-.36-0.12l-0.06,0v0a0.42,0.42,0,0,0-.29,0,0.22,0.22,0,0,0,0,.19,0,0,0,0,0,0,0h0a0.1,0.1,0,0,1,.07,0,0.19,0.19,0,0,1,.13.1,0.72,0.72,0,0,1,0,.48,1.41,1.41,0,0,1-.21.4,1,1,0,0,1-.52-0.16,1,1,0,0,0-.45-0.15,0.31,0.31,0,0,0-.31.36L9.88,14.47v0h0l1-.89-0.2.7-0.12,0h0l-0.07,0a0.15,0.15,0,0,0-.13.07,0.17,0.17,0,0,0,0,.16v0a0.17,0.17,0,0,0-.12.08,0.14,0.14,0,0,1-.05,0h0a0,0,0,0,0,0,0,0,0,0,0,0,0,0h0a0.07,0.07,0,0,1,0,0,0.19,0.19,0,0,0,.09.14,0.16,0.16,0,0,0,.16.19,5.71,5.71,0,0,0,1.38.13,5.78,5.78,0,0,0,1.38-.13,0.16,0.16,0,0,0,.16-0.19,0.19,0.19,0,0,0,.09-0.14,0.09,0.09,0,0,1,0,0h0a0,0,0,0,0,0,0,0,0,0,0,0,0,0h0a0.12,0.12,0,0,1-.05,0,0.17,0.17,0,0,0-.12-0.08v0a0.19,0.19,0,0,0,0-.16,0.15,0.15,0,0,0-.13-0.07l-0.07,0h0l-0.11,0-0.2-.73,1,0.92h0Zm-1.82-1.13a0,0,0,1,1,0,.07,0,0,0,0,1,0-.07A0,0,0,0,1,11.75,10.18Zm-0.22.69a1,1,0,0,0,0-.44h0.11a0.37,0.37,0,0,0-.27-0.22h0a0.12,0.12,0,0,0-.09.08h0a0.16,0.16,0,0,1,0-.07v0l0.08,0h0a0.18,0.18,0,0,1,.13.06,0.21,0.21,0,0,0,.14.07h0.06a0,0,0,0,0,0,0v0l0.05,0H12l0.08,0a0.82,0.82,0,0,1,0,.4,1.17,1.17,0,0,0,.17.68,0.34,0.34,0,0,1-.16,0A1.61,1.61,0,0,1,12,10.7h0a1.56,1.56,0,0,0,.13.58h0l0,0.07a0.39,0.39,0,0,1-.2-0.1,4.14,4.14,0,0,1,0-.58h0a4.4,4.4,0,0,0,0,.58l-0.09.1-0.09-.09a2.26,2.26,0,0,0,.1-0.6h0a2.26,2.26,0,0,1-.1.59,0.93,0.93,0,0,1-.17.12l0-.11a1.64,1.64,0,0,0,.18-0.59h0a1.66,1.66,0,0,1-.17.57,0.76,0.76,0,0,1-.21.09A1.45,1.45,0,0,0,11.53,10.87Zm-0.67,2.93L11,14.14l-0.14.2-0.1,0Zm1.65,0.59h0l-0.09-.15h0l-0.05.17H12.17l0-.13h0V14.21l0.06-.27,0.14,0.22h0l0.08-.23,0.14,0.22Zm0.1-.19,0.11,0.16-0.17,0Zm-0.17.2h-0.1l0-.12Zm-0.52.06a0.1,0.1,0,0,0-.1.06,0.06,0.06,0,0,0,0,0H11.76v0a0.1,0.1,0,0,0-.1-0.06,0.1,0.1,0,0,0-.08,0H11.43l0-.11,0.07,0.07,0.11-.08,0.1-.71,0,0.71,0.1,0.13,0.1-.13,0-.71,0.1,0.71,0.11,0.08,0.07-.07,0,0.11H12A0.1,0.1,0,0,0,11.92,14.44Zm0,0.1a0.06,0.06,0,0,1,0,0l0,0-0.06,0a0.22,0.22,0,0,1,0-.16,0.08,0.08,0,0,1,0,0A0.08,0.08,0,0,0,11.93,14.54Zm-0.23.14-0.06,0,0,0a0.07,0.07,0,0,1,0,0,0.06,0.06,0,0,0,0-.06,0.07,0.07,0,0,1,0,0A0.18,0.18,0,0,1,11.7,14.68Zm-0.27-.4,0,0.13H11.27l-0.05-.17h0l-0.09.15h0L11,14.16l0.14-.22,0.08,0.23h0L11.38,14l0.06,0.27v0h0Zm-0.2.12h-0.1l0.06-.11Zm-0.21,0-0.17,0L11,14.19ZM11.4,13l0.12,0.13-0.18.23,0-.28Zm-0.1,0,0-.21L11.38,13Zm0.23,0.12,0.09,0.09-0.07.3h0l-0.09-.3Zm-0.14.7,0.15-.22-0.1.45Zm0.86-.77,0,0.28-0.18-.23L12.17,13ZM12.19,13l0.1-.14,0,0.21Zm-0.1.27-0.09.3h0l-0.07-.3L12,13.2Zm-0.07.4,0.15,0.22,0,0.22Zm0.16,0.17L12,13.63l0.09-.31,0.11,0.14h0v0l0-.29,0.18,0.18h0l0-.12,0.13,0.46-0.18-.19h0l-0.06.21-0.14-.19h0Zm0.12-.74,0-.31,0.07-.13,0.14,0.49h0l-0.05.13Zm0.26,0,0-.79a2.49,2.49,0,0,0,.06-0.25l0.07,1.38Zm-0.77.24a2.07,2.07,0,0,1-.8-1.66H11a1.63,1.63,0,0,0,.75-0.23,1.4,1.4,0,0,0,.74.23h0.06A2.11,2.11,0,0,1,11.78,13.38Zm-0.51-.26-0.19.18L11,13.17h0l0.14-.49,0.07,0.13ZM11,12.35l0,0.79-0.09.33L11,12.09A2.49,2.49,0,0,0,11,12.35Zm0,0.87,0,0.12h0l0.18-.18,0,0.29v0h0l0.11-.14,0.09,0.31-0.15.23-0.06-.33h0l-0.14.19L11.1,13.5h0l-0.18.19Zm0.05,0.32,0.06,0.22h0l0.14-.19,0.06,0.32-0.14.22-0.08-.23h0L11,14.11l-0.1-.37Zm-0.53.76h0a2.62,2.62,0,0,0,.48.11,3.31,3.31,0,0,0,.39,0h0.14a0.07,0.07,0,0,1,.07.06l0,0a0.12,0.12,0,0,0,0,0H11.4l-0.27,0v0A0.12,0.12,0,0,0,11,14.41a0.11,0.11,0,0,0-.1.1h0l-0.41-.09a0.08,0.08,0,0,1-.07-0.08A0.08,0.08,0,0,1,10.54,14.3Zm0.55,0.25a0.09,0.09,0,0,1,0,.07l0,0,0,0a0.09,0.09,0,0,1,0-.08h0A0.08,0.08,0,0,1,11,14.45,0.1,0.1,0,0,1,11.09,14.55Zm-0.72-.17a0.11,0.11,0,0,1,.06,0v0a0.08,0.08,0,0,0,0,.06,0.18,0.18,0,0,0-.09.06A0.14,0.14,0,0,1,10.38,14.38Zm2.76,0v0a0.11,0.11,0,0,1,.06,0,0.19,0.19,0,0,1,0,.09,0.18,0.18,0,0,0-.09-0.06A0.08,0.08,0,0,0,13.14,14.35Zm0,0.14a0.11,0.11,0,0,1,.06.1,0,0,0,0,0,0,0h0a0.1,0.1,0,0,1,.09.06l0,0.05,0,0.05a0.11,0.11,0,0,1-.07.1,0,0,0,0,0,0,0c0,0.09,0,.13-0.1.15h0a5.6,5.6,0,0,1-1.37.13,5.74,5.74,0,0,1-1.36-.13h0c-0.11,0-.11-0.06-0.11-0.15a0,0,0,0,0,0,0,0.11,0.11,0,0,1-.07-0.1l0-.05,0-.05a0.09,0.09,0,0,1,.09-0.06h0v0a0.09,0.09,0,0,1,.06-0.1h0.08l0.42,0.09a0.16,0.16,0,0,0,0,.06,0.12,0.12,0,0,1,0,.08l0,0,0,0a0.09,0.09,0,0,1,0-.07l0,0,0.28,0h0.18a0.1,0.1,0,0,0,.05.05,0.1,0.1,0,0,1,.06.06v0h0a0.27,0.27,0,0,0,0-.13h0a0.29,0.29,0,0,0,0,.13h0v0a0.09,0.09,0,0,1,.06-0.06A0.12,0.12,0,0,0,12,14.6h0.18l0.28,0,0,0a0.09,0.09,0,0,1,0,.07l0,0,0,0a0.12,0.12,0,0,1,0-.08,0.13,0.13,0,0,0,0-.06L13,14.47h0.08Zm-0.65.06a0.09,0.09,0,0,1,0-.09,0.08,0.08,0,0,1,.07.07h0a0.08,0.08,0,0,1,0,.08l0,0,0,0A0.09,0.09,0,0,1,12.48,14.55ZM13,14.3a0.08,0.08,0,0,1,.1.06,0.08,0.08,0,0,1-.06.08l-0.41.09h0a0.11,0.11,0,0,0-.1-0.1,0.11,0.11,0,0,0-.08.13v0l-0.27,0H12a0.1,0.1,0,0,0,0,0l0,0A0.07,0.07,0,0,1,12,14.44h0.14a2.77,2.77,0,0,0,.39,0A2.92,2.92,0,0,0,13,14.3Zm-0.16,0-0.1,0-0.14-.2,0.1-.35Zm-0.17-.58-0.1.37-0.14-.22h0l-0.08.23-0.14-.22,0.06-.32,0.14,0.19h0l0.06-.22Zm0.77,0.51-0.06-.06-0.13-2.95-0.2.17h0L13.18,14l0,0-0.11-.1L13,11.47l-0.15.13h0l0.09,2.13-0.09-.08-0.09-2-0.13.06h0v0H12.54a1.31,1.31,0,0,1-.73-0.24v0h0a1.49,1.49,0,0,1-.74.24H11v0h0l-0.13-.06-0.09,2-0.16.14,0.07-.07,0.09-2.15h0l-0.15-.13-0.11,2.44-0.2.18L10.4,14l0.11-2.57h0l-0.2-.17-0.13,3-0.06.06,0.13-3.06a0.55,0.55,0,0,0-.2.1,0.27,0.27,0,0,1,.27-0.3,1,1,0,0,1,.44.15,1,1,0,0,0,.51.16l0,0,0,0h0a0.55,0.55,0,0,0,.23-0.08l0,0.15,0,0a0.87,0.87,0,0,0,.2-0.13l0.11,0.12v0l0.1-.1a0.41,0.41,0,0,0,.23.1h0a0.07,0.07,0,0,0,0-.07,0.85,0.85,0,0,0,.2,0v0l0,0a1,1,0,0,0,.52-0.16A1,1,0,0,1,13.27,11a0.27,0.27,0,0,1,.27.3,0.55,0.55,0,0,0-.2-0.1Z"/></g><g class="cls-11"><path class="cls-10" d="M10.77,11.27l0.13,0h0a0.22,0.22,0,0,0-.14,0h0a0,0,0,0,0,0,0h0Z"/><path class="cls-10" d="M11,11.34l0.15,0h0a0.48,0.48,0,0,0-.16,0h0Z"/><path class="cls-10" d="M11.62,11.45h0l0.15,0h0a0,0,0,0,0,0,0h0a0.33,0.33,0,0,0-.16,0h0Z"/><path class="cls-10" d="M11.38,11.43h0.16a0,0,0,0,0,0,0,0.12,0.12,0,0,0-.08,0l-0.09,0h0Z"/><path class="cls-10" d="M13.12,11.32h0l0.13,0s0,0,0,0h0a0.25,0.25,0,0,0-.14,0h0Z"/><path class="cls-10" d="M12.89,11.38h0l0.16,0h0a0.52,0.52,0,0,0-.16,0,0,0,0,0,0,0,0h0Z"/><path class="cls-10" d="M12.41,11.42a0.34,0.34,0,0,0-.16,0h0l0.15,0h0Z"/><path class="cls-10" d="M12.56,11.38a0.14,0.14,0,0,0-.08,0h0v0h0.16Z"/><path class="cls-10" d="M10.74,11.61h0v0l0,0a0,0,0,0,0,0,0A0,0,0,0,0,10.74,11.61Z"/><path class="cls-10" d="M12.24,11.71h0a0,0,0,0,0,0,0h0l0,0Z"/><path class="cls-10" d="M12.27,11.78a0,0,0,0,0,0,0l0,0h0s0,0,0,0a0,0,0,0,0,0,0h0Z"/><path class="cls-10" d="M11,11.79l0-.1s0,0,0,0l0,0s0,0,0,0a0.06,0.06,0,0,1,0,0,0,0,0,0,1,0,0s0,0,0,0v-0.1s0,0,0,0,0,0,0,0a0,0,0,0,1,0,0,0,0,0,0,1,0,0s0,0,0,0v0l0-.06,0,0s0,0,0-.05h0a0.07,0.07,0,0,1-.06,0,0,0,0,0,0,0,0,0,0,0,0,0,0,0s0,0,0,0a0.46,0.46,0,0,0,0,.06v0h0l0,0a0.16,0.16,0,0,0,0,.05,0,0,0,0,0,0,0l0.06,0,0.09,0,0.13,0h0S11,11.81,11,11.79Zm-0.27-.09h0S10.77,11.69,10.76,11.7Z"/><path class="cls-10" d="M10.74,11.78s0,0,0,0h0s0,0,0,0h0Z"/><path class="cls-10" d="M10.82,11.8s0,0,0,0a0,0,0,0,0,0,0h0v0S10.84,11.8,10.82,11.8Z"/><path class="cls-10" d="M13.27,11.81a0,0,0,0,0,0,0H13.3a0,0,0,0,0,0,0A0,0,0,0,0,13.27,11.81Z"/><path class="cls-10" d="M10.95,11.84h0v0a0,0,0,0,0,0,0h0A0,0,0,0,0,10.95,11.84Z"/><path class="cls-10" d="M11.57,11.88s0,0,0,0a0.28,0.28,0,0,1,0-.05,0.27,0.27,0,0,0,0-.05s0,0,0,0a0,0,0,0,1,0,0s0,0,0,0l0,0s0,0,0,0a0.36,0.36,0,0,0,0,.06,0.17,0.17,0,0,0,0,0,0.69,0.69,0,0,0,0,.08,4.2,4.2,0,0,0,0,.09h0A0,0,0,0,0,11.57,11.88Z"/><path class="cls-10" d="M12.49,11.83a0.36,0.36,0,0,1,0-.06,0,0,0,0,0,0,0l0,0s0,0,0,0a0.16,0.16,0,0,1,0,0s0,0,0,0a0,0,0,0,1,0,0,0.17,0.17,0,0,1,0,0s0,0,0-.07a0.82,0.82,0,0,0,0-.09s0,0,0,0h0l0,0s0,0,0,0v0a0.22,0.22,0,0,1,0,0s0,0,0,0l0,0a0.1,0.1,0,0,0,0,0,0,0,0,0,0,0,0h0.21a0,0,0,0,0,0,0A0.12,0.12,0,0,0,12.49,11.83Zm-0.17.05h0s0,0,0,0h0Z"/><path class="cls-10" d="M11.5,11.61h0l0,0s0,0,0,0a0,0,0,0,1,0,0s0,0,0,.07,0,0,0,.07a0.53,0.53,0,0,0,0,.08s0,0,0,0v0s0,0,0,0,0,0,0,0h0s0,0,0,0l0,0a0,0,0,1,0-.1,0h0s0,0,0,.05,0.06,0,0,0a0,0,0,0,1-.05,0,0,0,0,0,1,0,0,0.21,0.21,0,0,0,0-.06s0,0,0,0a0,0,0,0,0,0,.06,0.07,0.07,0,0,1,0,.06,0.07,0.07,0,0,1,0,0s0,0,0,0h0.07a0.08,0.08,0,0,0,.05,0,0.07,0.07,0,0,1,.06,0h0.06s0,0,0,0a0,0,0,0,0,0,0s0,0,0,0a0.05,0.05,0,0,0,0,0h0a0.07,0.07,0,0,0,0,0,0.19,0.19,0,0,0,0-.06V11.77a0.86,0.86,0,0,0,0-.09V11.63S11.51,11.61,11.5,11.61Zm-0.17.16h0a0,0,0,0,0,0,0A0,0,0,0,1,11.33,11.77Z"/><path class="cls-10" d="M13.26,11.72a0.15,0.15,0,0,1,0-.09,0.18,0.18,0,0,0,0-.11,0.09,0.09,0,0,0-.07,0h0s0,0,0,0,0,0,.07,0a0.08,0.08,0,0,1,0,.08,0.42,0.42,0,0,0,0,.09s0,0,0,0-0.05,0-.07,0a0.66,0.66,0,0,0,0,.05s0,0-.06,0a0.13,0.13,0,0,0-.07,0,0.21,0.21,0,0,0,0-.08s-0.06,0,0,.06,0,0,0,.06a0.14,0.14,0,0,0,0,.08s0,0,0,0,0,0,0,0a0.15,0.15,0,0,0-.06.06,0.32,0.32,0,0,0,0,.06s0,0,0,0,0,0,0,0-0.06,0-.06,0h0a0.08,0.08,0,0,0,.07-0.06s0,0,.07,0,0.06,0,.07,0,0.06,0,.08,0a0.06,0.06,0,0,0,0-.06s0,0,0,0a0.06,0.06,0,0,0,.08,0,0.1,0.1,0,0,1,.06,0l0.15,0s0,0,0,0A0.27,0.27,0,0,1,13.26,11.72Zm-0.53.12h0Zm0.16,0h0s0,0,0,0a0,0,0,0,1,0,0h0v0Zm0,0h0s0,0,0,0h0a0,0,0,0,1,0,0h0ZM13,11.87h0A0,0,0,0,1,13,11.87Zm0.14-.06h0l0,0h0S13.14,11.8,13.12,11.81Z"/><path class="cls-10" d="M12.6,11.83l0,0v0a0,0,0,0,0,0,0l0,0v0l0,0,0,0a0.16,0.16,0,0,1,0,0v0l0,0h0l0,0,0,0a0.11,0.11,0,0,0,0,0V11.83Z"/><path class="cls-10" d="M12.42,12h0s0,0,0,0a0,0,0,0,0,0,0v0h0l0,0h0l0,0h0a0,0,0,0,0,0,0S12.43,12,12.42,12Z"/><path class="cls-10" d="M12.18,11.8a0.16,0.16,0,0,0-.07,0,0.07,0.07,0,0,0,0,.06s0,0,0,0a0.07,0.07,0,0,0,0,0,0.08,0.08,0,0,0-.06,0H11.82s0,0,0,0h0a0,0,0,0,0,0,0,0.1,0.1,0,0,1,0,.06,0,0,0,0,1,0,0,0.35,0.35,0,0,0,0-.08s0,0,0,0a0.31,0.31,0,0,1,0,.07,0.06,0.06,0,0,1,0,.07,0.15,0.15,0,0,1-.07,0s0,0,0,0a0.09,0.09,0,0,0,.08,0,0.21,0.21,0,0,1,0,0h0.13a0.18,0.18,0,0,1,.08,0A0.07,0.07,0,0,0,12,12l0,0a0.1,0.1,0,0,0,0-.05h0.14l0,0a0.28,0.28,0,0,0,0-.05S12.19,11.82,12.18,11.8ZM12,11.93a0,0,0,0,1,0,0h0v0H11.79s0,0,0,0H12A0.36,0.36,0,0,1,12,11.93Zm0.16,0h0v0h0S12.15,11.89,12.14,11.89Z"/><path class="cls-10" d="M12.76,8.68h0A1.44,1.44,0,0,1,12,8.46h0a1.67,1.67,0,0,1-.72.21h0s0,0.09,0,.12a2.11,2.11,0,0,0,.07.4,2,2,0,0,0,.68,1h0a2,2,0,0,0,.68-1,2.11,2.11,0,0,0,.07-0.4s0-.07,0-0.11h0ZM12.29,9.94a2.11,2.11,0,0,1-.27.27,2,2,0,0,1-.29-0.28V8.63A1.12,1.12,0,0,0,12,8.49a0.81,0.81,0,0,0,.27.13V9.94h0Z"/><path class="cls-10" d="M13.8,8.22a0.31,0.31,0,0,0-.31-0.36A1,1,0,0,0,13,8a1,1,0,0,1-.53.16,1.27,1.27,0,0,1-.14-0.62,0.64,0.64,0,0,0-.09-0.46A0.7,0.7,0,0,0,11.92,7L11.86,7V7a0.42,0.42,0,0,0-.29,0,0.22,0.22,0,0,0,0,.19,0,0,0,0,0,0,0h0a0.1,0.1,0,0,1,.07,0,0.19,0.19,0,0,1,.13.1,0.72,0.72,0,0,1,0,.48,1.41,1.41,0,0,1-.21.4A1,1,0,0,1,11,8a1,1,0,0,0-.45-0.15,0.31,0.31,0,0,0-.31.36l-0.13,3.16v0h0l1-.89-0.2.7-0.12,0h0l-0.07,0a0.15,0.15,0,0,0-.13.07,0.17,0.17,0,0,0,0,.16v0a0.17,0.17,0,0,0-.12.08,0.14,0.14,0,0,1-.05,0h0a0,0,0,0,0,0,0,0,0,0,0,0,0,0h0a0.07,0.07,0,0,1,0,0,0.19,0.19,0,0,0,.09.14,0.16,0.16,0,0,0,.16.19,5.71,5.71,0,0,0,1.38.13A5.78,5.78,0,0,0,13.41,12a0.16,0.16,0,0,0,.16-0.19,0.19,0.19,0,0,0,.09-0.14,0.09,0.09,0,0,1,0,0h0a0,0,0,0,0,0,0,0,0,0,0,0,0,0h0a0.12,0.12,0,0,1-.05,0,0.17,0.17,0,0,0-.12-0.08v0a0.19,0.19,0,0,0,0-.16,0.15,0.15,0,0,0-.13-0.07l-0.07,0h0l-0.11,0-0.2-.73,1,0.92h0ZM12,7.09a0,0,0,1,1,0,.07,0,0,0,0,1,0-.07A0,0,0,0,1,12,7.09Zm-0.22.69a1,1,0,0,0,0-.44h0.11a0.37,0.37,0,0,0-.27-0.22h0a0.12,0.12,0,0,0-.09.08h0a0.16,0.16,0,0,1,0-.07v0l0.08,0h0a0.18,0.18,0,0,1,.13.06,0.21,0.21,0,0,0,.14.07H12a0,0,0,0,0,0,0v0l0.05,0h0.11l0.08,0a0.82,0.82,0,0,1,0,.4,1.17,1.17,0,0,0,.17.68,0.34,0.34,0,0,1-.16,0,1.61,1.61,0,0,1-.13-0.56h0a1.56,1.56,0,0,0,.13.58h0l0,0.07a0.39,0.39,0,0,1-.2-0.1,4.14,4.14,0,0,1,0-.58h0a4.4,4.4,0,0,0,0,.58L12,8.26l-0.09-.09a2.26,2.26,0,0,0,.1-0.6h0a2.26,2.26,0,0,1-.1.59,0.93,0.93,0,0,1-.17.12l0-.11a1.64,1.64,0,0,0,.18-0.59h0a1.64,1.64,0,0,1-.17.57,0.76,0.76,0,0,1-.21.09A1.45,1.45,0,0,0,11.76,7.78ZM11.09,10.7L11.19,11l-0.14.2-0.1,0Zm1.65,0.59h0l-0.09-.15h0l-0.05.17H12.4l0-.13h0V11.12l0.06-.27,0.14,0.22h0l0.08-.23,0.14,0.22Zm0.1-.19,0.11,0.16-0.17,0Zm-0.17.2h-0.1l0-.12Zm-0.52.06a0.1,0.1,0,0,0-.1.06,0.06,0.06,0,0,0,0,0H12v0a0.1,0.1,0,0,0-.1-0.06,0.1,0.1,0,0,0-.08,0H11.66l0-.11,0.07,0.07,0.11-.08,0.1-.71,0,0.71L12,11.33l0.1-.13,0-.71,0.1,0.71,0.11,0.08,0.07-.07,0,0.11H12.23A0.1,0.1,0,0,0,12.15,11.35Zm0,0.1a0.06,0.06,0,0,1,0,0l0,0-0.06,0a0.22,0.22,0,0,1,0-.16,0.08,0.08,0,0,1,0,0A0.08,0.08,0,0,0,12.16,11.45Zm-0.23.14-0.06,0,0,0a0.07,0.07,0,0,1,0,0,0.06,0.06,0,0,0,0-.06,0.07,0.07,0,0,1,0,0A0.18,0.18,0,0,1,11.93,11.59Zm-0.27-.4,0,0.13H11.5l-0.05-.17h0l-0.09.15h0l-0.07-.22,0.14-.22,0.08,0.23h0l0.14-.22,0.06,0.27v0h0Zm-0.2.12h-0.1l0.06-.11Zm-0.21,0-0.17,0,0.11-.16ZM11.63,10l0.12,0.13-0.18.23,0-.28Zm-0.1,0,0-.21,0.1,0.14Zm0.23,0.12,0.09,0.09-0.07.3h0l-0.09-.3Zm-0.14.7,0.15-.22-0.1.45ZM12.49,10l0,0.28-0.18-.23L12.4,10Zm-0.07-.12,0.1-.14,0,0.21Zm-0.1.27-0.09.3h0l-0.07-.3,0.09-.09Zm-0.07.4,0.15,0.22,0,0.22Zm0.16,0.17-0.15-.23,0.09-.31,0.11,0.14h0v0l0-.29,0.18,0.18h0l0-.12,0.13,0.46-0.18-.19h0l-0.06.21-0.14-.19h0ZM12.52,10l0-.31,0.07-.13,0.14,0.49h0l-0.05.13Zm0.26,0,0-.79A2.49,2.49,0,0,0,12.81,9l0.07,1.38ZM12,10.29a2.07,2.07,0,0,1-.8-1.66h0.06A1.63,1.63,0,0,0,12,8.4a1.4,1.4,0,0,0,.74.23h0.06A2.11,2.11,0,0,1,12,10.29ZM11.5,10l-0.19.18-0.05-.13h0l0.14-.49,0.07,0.13Zm-0.23-.77,0,0.79-0.09.33L11.21,9A2.49,2.49,0,0,0,11.27,9.26Zm0,0.87,0,0.12h0l0.18-.18,0,0.29v0h0l0.11-.14,0.09,0.31-0.15.23-0.06-.33h0l-0.14.19-0.06-.21h0l-0.18.19Zm0.05,0.32,0.06,0.22h0l0.14-.19,0.06,0.32L11.45,11l-0.08-.23h0L11.21,11l-0.1-.37Zm-0.53.76h0a2.62,2.62,0,0,0,.48.11,3.31,3.31,0,0,0,.39,0H11.8a0.07,0.07,0,0,1,.07.06l0,0a0.12,0.12,0,0,0,0,0H11.63l-0.27,0v0a0.12,0.12,0,0,0-.08-0.13,0.11,0.11,0,0,0-.1.1h0l-0.41-.09a0.08,0.08,0,0,1-.07-0.08A0.08,0.08,0,0,1,10.77,11.21Zm0.55,0.25a0.09,0.09,0,0,1,0,.07l0,0,0,0a0.09,0.09,0,0,1,0-.08h0a0.08,0.08,0,0,1,.07-0.07A0.1,0.1,0,0,1,11.32,11.46Zm-0.72-.17a0.11,0.11,0,0,1,.06,0v0a0.08,0.08,0,0,0,0,.06,0.18,0.18,0,0,0-.09.06A0.14,0.14,0,0,1,10.6,11.29Zm2.76,0v0a0.11,0.11,0,0,1,.06,0,0.19,0.19,0,0,1,0,.09,0.18,0.18,0,0,0-.09-0.06A0.08,0.08,0,0,0,13.37,11.26Zm0,0.14a0.11,0.11,0,0,1,.06.1,0,0,0,0,0,0,0h0a0.1,0.1,0,0,1,.09.06l0,0.05,0,0.05a0.11,0.11,0,0,1-.07.1,0,0,0,0,0,0,0c0,0.09,0,.13-0.1.15h0A5.6,5.6,0,0,1,12,12.1,5.74,5.74,0,0,1,10.65,12h0c-0.11,0-.11-0.06-0.11-0.15a0,0,0,0,0,0,0,0.11,0.11,0,0,1-.07-0.1l0-.05,0-.05a0.09,0.09,0,0,1,.09-0.06h0v0a0.09,0.09,0,0,1,.06-0.1h0.08l0.42,0.09a0.16,0.16,0,0,0,0,.06,0.12,0.12,0,0,1,0,.08l0,0,0,0a0.09,0.09,0,0,1,0-.07l0,0,0.28,0H11.8a0.1,0.1,0,0,0,.05.05,0.1,0.1,0,0,1,.06.06v0h0a0.27,0.27,0,0,0,0-.13h0a0.29,0.29,0,0,0,0,.13h0a0.09,0.09,0,0,1,.06-0.07,0.12,0.12,0,0,0,.05-0.06H12.4l0.28,0,0,0a0.09,0.09,0,0,1,0,.07l0,0,0,0a0.12,0.12,0,0,1,0-.08,0.13,0.13,0,0,0,0-.06l0.43-.09h0.08Zm-0.65.06a0.09,0.09,0,0,1,0-.09,0.08,0.08,0,0,1,.07.07h0a0.08,0.08,0,0,1,0,.08l0,0,0,0A0.09,0.09,0,0,1,12.71,11.46Zm0.53-.24a0.08,0.08,0,0,1,.1.06,0.08,0.08,0,0,1-.06.08l-0.41.09h0a0.11,0.11,0,0,0-.1-0.1,0.11,0.11,0,0,0-.08.13v0l-0.27,0H12.22a0.1,0.1,0,0,0,0,0l0,0a0.07,0.07,0,0,1,.07-0.06h0.14a2.77,2.77,0,0,0,.39,0A2.92,2.92,0,0,0,13.24,11.21Zm-0.16,0-0.1,0-0.14-.2,0.1-.35Zm-0.17-.58-0.1.37-0.14-.22h0L12.58,11l-0.14-.22,0.06-.32,0.14,0.19h0l0.06-.22Zm0.77,0.51-0.06-.06L13.49,8.15l-0.2.17h0l0.11,2.57,0,0-0.11-.1L13.21,8.39l-0.15.13h0l0.09,2.13-0.09-.08L13,8.56l-0.13.06h0v0H12.77A1.31,1.31,0,0,1,12,8.37v0h0a1.49,1.49,0,0,1-.74.24H11.19v0h0l-0.13-.06-0.09,2-0.16.14,0.07-.07L11,8.51h0l-0.15-.13-0.11,2.44-0.2.18,0.11-.12,0.11-2.57h0l-0.2-.17-0.13,3-0.06.06,0.13-3.06a0.55,0.55,0,0,0-.2.1,0.27,0.27,0,0,1,.27-0.3A1,1,0,0,1,11,8a1,1,0,0,0,.51.16l0,0,0,0h0a0.55,0.55,0,0,0,.23-0.08l0,0.15,0,0a0.87,0.87,0,0,0,.2-0.13L12,8.3v0l0.1-.1a0.41,0.41,0,0,0,.23.1h0a0.07,0.07,0,0,0,0-.07,0.85,0.85,0,0,0,.2,0v0l0,0A1,1,0,0,0,13.06,8a1,1,0,0,1,.44-0.15,0.27,0.27,0,0,1,.27.3,0.55,0.55,0,0,0-.2-0.1Z"/></g></svg>