<svg id="Layer_1" data-name="Layer 1" xmlns="http://www.w3.org/2000/svg" viewBox="0 0 24 21.95"><defs><style>.cls-1{fill:#ccc;}.cls-2{fill:#b3b3b3;}.cls-3{fill:#e6e6e6;}.cls-4{fill:#ed7161;}.cls-4,.cls-5{fill-rule:evenodd;}.cls-5{fill:#d46557;}</style></defs><title>Icon</title><path class="cls-1" d="M10,3.95c-1.1,0-2,.45-2,1v16c0,0.55.9,1,2,1,0.19,0,14-1,14-1v-18Z"/><path class="cls-2" d="M8,14.95v6c0-.55.9-1,2-1s2-.45,2-1v-4H8Z"/><path class="cls-3" d="M10-.05c-0.27,0-10,1-10,1v18s9.73-1,10-1c1.1,0,2,.45,2,1v-18c0-.55-0.9-1-2-1"/><path class="cls-4" d="M12,5.95a4,4,0,0,0,0,8v-8Z"/><path class="cls-5" d="M12,7.95v8a4,4,0,0,0,0-8"/></svg>