<svg id="Layer_1" data-name="Layer 1" xmlns="http://www.w3.org/2000/svg" viewBox="0 0 24.08 24.17"><defs><style>.cls-1{fill:none;stroke:#48a0dc;stroke-linecap:round;stroke-linejoin:round;stroke-width:2px;}</style></defs><title>maxGain</title><path class="cls-1" d="M16.25,17.27A1.47,1.47,0,1,1,15.09,20L10,18.12"/><path class="cls-1" d="M16.25,17.27l-5.72-2.12S7.32,14.64,1,16.43l1,4.69a33.77,33.77,0,0,1,4.13-.93c0.79,0,3.55,2,5.32,2.59a15.36,15.36,0,0,0,4.76.27L22.08,19A1.47,1.47,0,1,0,21,16.25"/><line class="cls-1" x1="20.98" y1="16.25" x2="17.13" y2="18.52"/><rect class="cls-1" x="10" y="4.08" width="13" height="8"/><polyline class="cls-1" points="20 1.08 7 1.08 7 9.08"/><path class="cls-1" d="M16,8.09a0.93,0.93,0,0,0,.51,1,0.92,0.92,0,0,0,.49-1,0.9,0.9,0,0,0-.5-1A0.9,0.9,0,0,0,16,8.09Z"/></svg>